<?xml version="1.0" encoding="UTF-8"?>
<svg viewBox="0 0 22 41" xmlns="http://www.w3.org/2000/svg">
 <g transform="translate(-364 -511.86)" fill-rule="evenodd">
  <path d="m367.52 533.86 2.4796 2.6047-0.01363 8.967-2.4932 2.4283-2.4932-2.4147v-9.0349l2.5204-2.5504z"/>
  <path d="m382.52 516.86 2.4796 2.6047-0.01363 8.967-2.4932 2.4283-2.4932-2.4147v-9.0349l2.5204-2.5504z"/>
  <path d="m382.52 533.86 2.4796 2.6047-0.01363 8.967-2.4932 2.4283-2.4932-2.4147v-9.0349l2.5204-2.5504z"/>
  <path d="m382 532.38-2.6047 2.4796-8.967-0.01363-2.4283-2.4932 2.4147-2.4932h9.0349l2.5504 2.5204z"/>
  <path d="m382 515.38-2.6047 2.4796-8.967-0.01363-2.4283-2.4932 2.4147-2.4932h9.0349l2.5504 2.5204z"/>
  <path d="m382 549.38-2.6047 2.4796-8.967-0.01363-2.4283-2.4932 2.4147-2.4932h9.0349l2.5504 2.5204z"/>
  <path d="m367.52 516.86 2.4796 2.6047-0.01363 8.967-2.4932 2.4283-2.4932-2.4147v-9.0349l2.5204-2.5504z"/>
 </g>
</svg>
