<?xml version="1.0" encoding="UTF-8"?>
<svg viewBox="0 0 612.164 613.171" xmlns="http://www.w3.org/2000/svg">
 <g transform="translate(2.3033 -82.919)" fill="#fff">
  <path d="m184.41 358.05c21.588 0 39.087-17.499 39.087-39.084s-17.499-39.09-39.087-39.09c-21.585 0-39.085 17.502-39.085 39.09s17.5 39.084 39.085 39.084z"/>
  <path d="m268.81 307.88h156.23c22.921 0 36.423 14.753 36.423 34.504v56.552h-192.66v-91.056z"/>
  <path d="m226.28 328.12v33.918h-60.069c-29 0.104-29.047 37.382 0 37.382h78.75c11.5 0 18.7-9.282 18.7-19.782v-51.518c0-28.222-37.381-28.222-37.381 0z"/>
  <path d="m137.86 275.29c0-30.779-42.702-30.779-42.702 0v246.81h43.65v-63.74h332.12v63.261h42.701v-190.63c0-32.482-43.175-32.482-43.175 0v76.088h-332.59v-131.79z"/>
 </g>
 <path d="m89.6 18.17c-41.335 0-64.571 21.371-64.571 65.036v450.12c0 40.843 20.891 62.228 62.192 62.228h452.02c41.303 0 62.226-20.32 62.226-62.228v-450.12c0-42.6-20.923-65.036-63.523-65.036 0 0-448.49-0.142-448.35 0z" fill="#5f8dd3"/>
 <g transform="translate(120.81 102.03)" fill="#5f8dd3">
  <path d="m375.28 127.03h-37.46v47.303h37.46v-47.303z"/>
  <path d="m302.24 127.03h-37.46v47.303h37.46v-47.303z"/>
  <path d="m375.28 209.12h-37.46v145.82h37.46v-145.82z"/>
  <path d="m302.24 209.12h-37.46v145.82h37.46v-145.82z"/>
  <path d="m146.56 333.83h-101.96c-15.921 0-15.978 22.457-0.057 22.457h102.95c-7.492-4.778-7.961-17.201-0.937-22.457z"/>
  <path d="m158.33 301.82h-89.23l63.881-28.668v-114.67h25.349v143.34z"/>
 </g>
 <path d="m135.39 120.27c-2.3033 179.66-3.4554 269.49-4.0312 314.41-0.28791 22.457-0.42802 33.667-0.5 39.281-0.03599 2.8072-0.0535 4.2045-0.0625 4.9062-0.0045 0.35089 0.00112 0.53728 0 0.625-5.6e-4 0.04386 1.4e-4 0.05153 0 0.0625s2e-5 0.02988 0 0.03125h0.5v0.5c187.72-1.1517 281.57-1.7121 328.5-2 23.465-0.14396 35.196-0.24526 41.062-0.28125l5.1562-0.03125h0.71875v-1s-0.99641 0.01838-374.94 2.3125c1e-5 -6.9e-4 -0.00645 0.00348 4.5938-358.81h-1z" fill="#fff" fill-rule="evenodd" stroke="#fff" stroke-width="16.4"/>
 <path d="m138.2 364.41 76.009-99.042 50.673 36.853 92.132-94.436 23.033 23.033 29.943 25.336 62.189-64.493-4.6066 2.3033 4.6066-2.3033" fill="none" stroke="#fff" stroke-width="16.4"/>
</svg>
