<?xml version="1.0" encoding="UTF-8"?>
<svg viewBox="0 0 564.20416 888.23767" xmlns="http://www.w3.org/2000/svg" xmlns:xlink="http://www.w3.org/1999/xlink">
 <defs>
  <linearGradient id="a">
   <stop offset="0"/>
   <stop stop-color="#928f90" offset=".619"/>
   <stop stop-color="#34342e" offset="1"/>
  </linearGradient>
  <linearGradient id="ew" x1="306.69" x2="317.93" gradientTransform="matrix(.38235 -.66225 .64372 .37165 -26.23 550.42)" gradientUnits="userSpaceOnUse" xlink:href="#a"/>
  <linearGradient id="ev" x1="306.69" x2="317.93" gradientTransform="matrix(-.38235 -.66225 .64372 -.37165 266.86 789.4)" gradientUnits="userSpaceOnUse" xlink:href="#a"/>
  <linearGradient id="eu" x1="306.69" x2="317.93" gradientTransform="matrix(-.38235 -.66225 .64372 -.37165 212.41 696.7)" gradientUnits="userSpaceOnUse" xlink:href="#a"/>
  <linearGradient id="es" x1="377.23" x2="385.82" gradientUnits="userSpaceOnUse" xlink:href="#a"/>
  <linearGradient id="er" x1="268.96" x2="277.55" gradientUnits="userSpaceOnUse" xlink:href="#a"/>
  <linearGradient id="eq" x1="306.69" x2="317.93" gradientTransform="matrix(.38235 -.66225 .64372 .37165 28.14 643.37)" gradientUnits="userSpaceOnUse" xlink:href="#a"/>
  <linearGradient id="eo" x1="306.69" x2="317.93" gradientTransform="matrix(-.38235 -.66225 .64372 -.37165 321.23 882.36)" gradientUnits="userSpaceOnUse" xlink:href="#a"/>
  <linearGradient id="em" x1="431.6" x2="440.19" gradientUnits="userSpaceOnUse" xlink:href="#a"/>
  <linearGradient id="ek" x1="323.33" x2="331.92" gradientUnits="userSpaceOnUse" xlink:href="#a"/>
  <linearGradient id="ei" x1="306.69" x2="317.93" gradientTransform="matrix(.38235 -.66225 .64372 .37165 190.12 364.21)" gradientUnits="userSpaceOnUse" xlink:href="#a"/>
  <linearGradient id="ee" x1="306.69" x2="317.93" gradientTransform="matrix(-.38235 -.66225 .64372 -.37165 429.34 696.57)" gradientUnits="userSpaceOnUse" xlink:href="#a"/>
  <linearGradient id="ec" x1="306.69" x2="317.93" gradientTransform="matrix(-.38235 -.66225 .64372 -.37165 374.89 603.86)" gradientUnits="userSpaceOnUse" xlink:href="#a"/>
  <linearGradient id="dy" x1="539.71" x2="548.3" gradientUnits="userSpaceOnUse" xlink:href="#a"/>
  <linearGradient id="dv" x1="306.69" x2="317.93" gradientTransform="matrix(.38235 -.66225 .64372 .37165 135.83 271.49)" gradientUnits="userSpaceOnUse" xlink:href="#a"/>
  <linearGradient id="du" x1="306.69" x2="317.93" gradientTransform="matrix(-.38235 -.66225 .64372 -.37165 320.6 511.14)" gradientUnits="userSpaceOnUse" xlink:href="#a"/>
  <linearGradient id="dt" x1="485.42" x2="494.01" gradientUnits="userSpaceOnUse" xlink:href="#a"/>
  <linearGradient id="dq" x1="377.14" x2="385.74" gradientUnits="userSpaceOnUse" xlink:href="#a"/>
  <linearGradient id="dn" x1="306.69" x2="317.93" gradientTransform="matrix(.38235 -.66225 .64372 .37165 27.721 271.49)" gradientUnits="userSpaceOnUse" xlink:href="#a"/>
  <linearGradient id="dm" x1="306.69" x2="317.93" gradientTransform="matrix(.38235 -.66225 .64372 .37165 -26.146 364.86)" gradientUnits="userSpaceOnUse" xlink:href="#a"/>
  <linearGradient id="di" x1="306.69" x2="317.93" gradientTransform="matrix(-.38235 -.66225 .64372 -.37165 212.49 511.14)" gradientUnits="userSpaceOnUse" xlink:href="#a"/>
  <linearGradient id="dh" x1="269.04" x2="277.63" gradientUnits="userSpaceOnUse" xlink:href="#a"/>
  <linearGradient id="cz" x1="306.69" x2="317.93" gradientTransform="matrix(.38235 -.66225 .64372 .37165 190.24 549.89)" gradientUnits="userSpaceOnUse" xlink:href="#a"/>
  <linearGradient id="cy" x1="306.69" x2="317.93" gradientTransform="matrix(.38235 -.66225 .64372 .37165 136.37 643.26)" gradientUnits="userSpaceOnUse" xlink:href="#a"/>
  <linearGradient id="cw" x1="306.69" x2="317.93" gradientTransform="matrix(-.38235 -.66225 .64372 -.37165 429.47 882.24)" gradientUnits="userSpaceOnUse" xlink:href="#a"/>
  <linearGradient id="cu" x1="539.83" x2="548.43" gradientUnits="userSpaceOnUse" xlink:href="#a"/>
  <linearGradient id="cs" x1="306.69" x2="317.93" gradientTransform="matrix(.38235 -.66225 .64372 .37165 -80.458 457.79)" gradientUnits="userSpaceOnUse" xlink:href="#a"/>
  <linearGradient id="cq" x1="306.69" x2="317.93" gradientTransform="matrix(-.38235 -.66225 .64372 -.37165 158.18 604.06)" gradientUnits="userSpaceOnUse" xlink:href="#a"/>
  <linearGradient id="ch" x1="214.73" x2="223.32" gradientUnits="userSpaceOnUse" xlink:href="#a"/>
  <linearGradient id="ce" x1="306.69" x2="317.93" gradientTransform="matrix(.38235 -.66225 .64372 .37165 -79.889 643.31)" gradientUnits="userSpaceOnUse" xlink:href="#a"/>
  <linearGradient id="cc" x1="306.69" x2="317.93" gradientTransform="matrix(-.38235 -.66225 .64372 -.37165 213.2 882.29)" gradientUnits="userSpaceOnUse" xlink:href="#a"/>
  <linearGradient id="ca" x1="306.69" x2="317.93" gradientTransform="matrix(-.38235 -.66225 .64372 -.37165 158.75 789.58)" gradientUnits="userSpaceOnUse" xlink:href="#a"/>
  <linearGradient id="bz" x1="215.3" x2="223.89" gradientUnits="userSpaceOnUse" xlink:href="#a"/>
  <linearGradient id="bx" x1="306.69" x2="317.93" gradientTransform="matrix(.38235 -.66225 .64372 .37165 244.23 271.14)" gradientUnits="userSpaceOnUse" xlink:href="#a"/>
  <linearGradient id="bu" x1="306.69" x2="317.93" gradientTransform="matrix(-.38235 -.66225 .64372 -.37165 483.45 603.49)" gradientUnits="userSpaceOnUse" xlink:href="#a"/>
  <linearGradient id="bq" x1="306.69" x2="317.93" gradientTransform="matrix(-.38235 -.66225 .64372 -.37165 429 510.78)" gradientUnits="userSpaceOnUse" xlink:href="#a"/>
  <linearGradient id="bp" x1="593.82" x2="602.41" gradientUnits="userSpaceOnUse" xlink:href="#a"/>
  <linearGradient id="bm" x1="306.69" x2="317.93" gradientTransform="matrix(.38235 -.66225 .64372 .37165 244.23 457.12)" gradientUnits="userSpaceOnUse" xlink:href="#a"/>
  <linearGradient id="bk" x1="306.69" x2="317.93" gradientTransform="matrix(-.38235 -.66225 .64372 -.37165 483.46 789.48)" gradientUnits="userSpaceOnUse" xlink:href="#a"/>
  <linearGradient id="bj" x1="593.82" x2="602.42" gradientUnits="userSpaceOnUse" xlink:href="#a"/>
  <linearGradient id="bi" x1="306.69" x2="317.93" gradientTransform="matrix(.38235 -.66225 .64372 .37165 -80.566 271.64)" gradientUnits="userSpaceOnUse" xlink:href="#a"/>
  <linearGradient id="bc" x1="306.69" x2="317.93" gradientTransform="matrix(.38235 -.66225 .64372 .37165 -134.43 365.01)" gradientUnits="userSpaceOnUse" xlink:href="#a"/>
  <linearGradient id="at" x1="306.69" x2="317.93" gradientTransform="matrix(-.38235 -.66225 .64372 -.37165 104.21 511.29)" gradientUnits="userSpaceOnUse" xlink:href="#a"/>
  <linearGradient id="al" x1="160.75" x2="169.34" gradientUnits="userSpaceOnUse" xlink:href="#a"/>
  <linearGradient id="ad" x1="306.69" x2="317.93" gradientTransform="matrix(.38235 -.66225 .64372 .37165 -134.37 550.62)" gradientUnits="userSpaceOnUse" xlink:href="#a"/>
  <linearGradient id="ac" x1="306.69" x2="317.93" gradientTransform="matrix(-.38235 -.66225 .64372 -.37165 104.12 696.74)" gradientUnits="userSpaceOnUse" xlink:href="#a"/>
  <linearGradient id="aa" x1="160.67" x2="169.26" gradientUnits="userSpaceOnUse" xlink:href="#a"/>
  <linearGradient id="z" x1="306.69" x2="317.93" gradientTransform="matrix(.38235 -.66225 .64372 .37165 81.696 364.21)" gradientUnits="userSpaceOnUse" xlink:href="#a"/>
  <linearGradient id="v" x1="306.69" x2="317.93" gradientTransform="matrix(.38235 -.66225 .64372 .37165 27.829 457.58)" gradientUnits="userSpaceOnUse" xlink:href="#a"/>
  <linearGradient id="t" x1="306.69" x2="317.93" gradientTransform="matrix(-.38235 -.66225 .64372 -.37165 320.92 696.56)" gradientUnits="userSpaceOnUse" xlink:href="#a"/>
  <linearGradient id="r" x1="306.69" x2="317.93" gradientTransform="matrix(-.38235 -.66225 .64372 -.37165 266.47 603.85)" gradientUnits="userSpaceOnUse" xlink:href="#a"/>
  <linearGradient id="n" x1="431.29" x2="439.88" gradientUnits="userSpaceOnUse" xlink:href="#a"/>
  <linearGradient id="k" x1="323.02" x2="331.61" gradientUnits="userSpaceOnUse" xlink:href="#a"/>
  <linearGradient id="av" x1="306.69" x2="317.93" gradientTransform="matrix(.38235 -.66225 .64372 .37165 -133.64 736.53)" gradientUnits="userSpaceOnUse" xlink:href="#a"/>
  <linearGradient id="as" x1="306.69" x2="317.93" gradientTransform="matrix(-.38235 -.66225 .64372 -.37165 105 882.81)" gradientUnits="userSpaceOnUse" xlink:href="#a"/>
  <linearGradient id="aj" x1="161.55" x2="170.14" gradientUnits="userSpaceOnUse" xlink:href="#a"/>
  <linearGradient id="bw" x1="306.69" x2="317.93" gradientTransform="matrix(.38235 -.66225 .64372 .37165 245.02 642.65)" gradientUnits="userSpaceOnUse" xlink:href="#a"/>
  <linearGradient id="bt" x1="306.69" x2="317.93" gradientTransform="matrix(-.38235 -.66225 .64372 -.37165 484.25 975.01)" gradientUnits="userSpaceOnUse" xlink:href="#a"/>
  <linearGradient id="bo" x1="594.61" x2="603.21" gradientUnits="userSpaceOnUse" xlink:href="#a"/>
  <linearGradient id="cp" x1="306.69" x2="317.93" gradientTransform="matrix(-.38235 -.66225 .64372 -.37165 158.98 975.58)" gradientUnits="userSpaceOnUse" xlink:href="#a"/>
  <linearGradient id="dk" x1="306.69" x2="317.93" gradientTransform="matrix(.38235 -.66225 .64372 .37165 -25.351 736.38)" gradientUnits="userSpaceOnUse" xlink:href="#a"/>
  <linearGradient id="dd" x1="269.84" x2="278.43" gradientUnits="userSpaceOnUse" xlink:href="#a"/>
  <linearGradient id="ds" x1="486.21" x2="494.8" gradientUnits="userSpaceOnUse" xlink:href="#a"/>
  <linearGradient id="dp" x1="377.94" x2="386.53" gradientUnits="userSpaceOnUse" xlink:href="#a"/>
  <linearGradient id="eh" x1="306.69" x2="317.93" gradientTransform="matrix(.38235 -.66225 .64372 .37165 190.91 735.73)" gradientUnits="userSpaceOnUse" xlink:href="#a"/>
  <linearGradient id="eb" x1="306.69" x2="317.93" gradientTransform="matrix(-.38235 -.66225 .64372 -.37165 375.69 975.38)" gradientUnits="userSpaceOnUse" xlink:href="#a"/>
  <linearGradient id="y" x1="306.69" x2="317.93" gradientTransform="matrix(.38235 -.66225 .64372 .37165 82.492 735.73)" gradientUnits="userSpaceOnUse" xlink:href="#a"/>
  <linearGradient id="p" x1="306.69" x2="317.93" gradientTransform="matrix(-.38235 -.66225 .64372 -.37165 267.26 975.37)" gradientUnits="userSpaceOnUse" xlink:href="#a"/>
  <linearGradient id="h" x1="306.69" x2="317.93" gradientTransform="matrix(.38235 -.66225 .64372 .37165 135.91 457.12)" gradientUnits="userSpaceOnUse" xlink:href="#a"/>
  <linearGradient id="f" x1="306.69" x2="317.93" gradientTransform="matrix(.38235 -.66225 .64372 .37165 82.046 550.49)" gradientUnits="userSpaceOnUse" xlink:href="#a"/>
  <linearGradient id="e" x1="306.69" x2="317.93" gradientTransform="matrix(-.38235 -.66225 .64372 -.37165 375.14 789.47)" gradientUnits="userSpaceOnUse" xlink:href="#a"/>
  <linearGradient id="d" x1="485.51" x2="494.1" gradientUnits="userSpaceOnUse" xlink:href="#a"/>
  <linearGradient id="c" x1="377.23" x2="385.82" gradientUnits="userSpaceOnUse" xlink:href="#a"/>
  <linearGradient id="au" x1="306.69" x2="317.93" gradientTransform="matrix(.38235 -.66225 .64372 .37165 -132.91 922.57)" gradientUnits="userSpaceOnUse" xlink:href="#a"/>
  <linearGradient id="ar" x1="306.69" x2="317.93" gradientTransform="matrix(-.38235 -.66225 .64372 -.37165 105.73 1068.8)" gradientUnits="userSpaceOnUse" xlink:href="#a"/>
  <linearGradient id="ai" x1="162.28" x2="170.87" gradientUnits="userSpaceOnUse" xlink:href="#a"/>
  <linearGradient id="bv" x1="306.69" x2="317.93" gradientTransform="matrix(.38235 -.66225 .64372 .37165 245.76 828.69)" gradientUnits="userSpaceOnUse" xlink:href="#a"/>
  <linearGradient id="bs" x1="306.69" x2="317.93" gradientTransform="matrix(-.38235 -.66225 .64372 -.37165 484.98 1161)" gradientUnits="userSpaceOnUse" xlink:href="#a"/>
  <linearGradient id="bn" x1="595.35" x2="603.94" gradientUnits="userSpaceOnUse" xlink:href="#a"/>
  <linearGradient id="co" x1="306.69" x2="317.93" gradientTransform="matrix(-.38235 -.66225 .64372 -.37165 159.71 1161.6)" gradientUnits="userSpaceOnUse" xlink:href="#a"/>
  <linearGradient id="dj" x1="306.69" x2="317.93" gradientTransform="matrix(.38235 -.66225 .64372 .37165 -24.618 922.42)" gradientUnits="userSpaceOnUse" xlink:href="#a"/>
  <linearGradient id="dc" x1="270.57" x2="279.16" gradientUnits="userSpaceOnUse" xlink:href="#a"/>
  <linearGradient id="dr" x1="486.94" x2="495.54" gradientUnits="userSpaceOnUse" xlink:href="#a"/>
  <linearGradient id="do" x1="378.67" x2="387.26" gradientUnits="userSpaceOnUse" xlink:href="#a"/>
  <linearGradient id="eg" x1="306.69" x2="317.93" gradientTransform="matrix(.38235 -.66225 .64372 .37165 191.65 921.77)" gradientUnits="userSpaceOnUse" xlink:href="#a"/>
  <linearGradient id="ea" x1="306.69" x2="317.93" gradientTransform="matrix(-.38235 -.66225 .64372 -.37165 376.42 1161.4)" gradientUnits="userSpaceOnUse" xlink:href="#a"/>
  <linearGradient id="x" x1="306.69" x2="317.93" gradientTransform="matrix(.38235 -.66225 .64372 .37165 83.225 921.77)" gradientUnits="userSpaceOnUse" xlink:href="#a"/>
  <linearGradient id="o" x1="306.69" x2="317.93" gradientTransform="matrix(-.38235 -.66225 .64372 -.37165 268 1161.4)" gradientUnits="userSpaceOnUse" xlink:href="#a"/>
  <linearGradient id="cd" x1="306.69" x2="317.93" gradientTransform="matrix(.38235 -.66225 .64372 .37165 -79.157 829.34)" gradientUnits="userSpaceOnUse" xlink:href="#a"/>
  <linearGradient id="cb" x1="306.69" x2="317.93" gradientTransform="matrix(-.38235 -.66225 .64372 -.37165 213.94 1068.3)" gradientUnits="userSpaceOnUse" xlink:href="#a"/>
  <linearGradient id="by" x1="216.03" x2="224.62" gradientUnits="userSpaceOnUse" xlink:href="#a"/>
  <linearGradient id="cx" x1="306.69" x2="317.93" gradientTransform="matrix(.38235 -.66225 .64372 .37165 137.11 829.3)" gradientUnits="userSpaceOnUse" xlink:href="#a"/>
  <linearGradient id="cv" x1="306.69" x2="317.93" gradientTransform="matrix(-.38235 -.66225 .64372 -.37165 430.2 1068.3)" gradientUnits="userSpaceOnUse" xlink:href="#a"/>
  <linearGradient id="ct" x1="540.57" x2="549.16" gradientUnits="userSpaceOnUse" xlink:href="#a"/>
  <linearGradient id="ep" x1="306.69" x2="317.93" gradientTransform="matrix(.38235 -.66225 .64372 .37165 28.873 829.41)" gradientUnits="userSpaceOnUse" xlink:href="#a"/>
  <linearGradient id="en" x1="306.69" x2="317.93" gradientTransform="matrix(-.38235 -.66225 .64372 -.37165 321.96 1068.4)" gradientUnits="userSpaceOnUse" xlink:href="#a"/>
  <linearGradient id="el" x1="432.33" x2="440.92" gradientUnits="userSpaceOnUse" xlink:href="#a"/>
  <linearGradient id="ej" x1="324.06" x2="332.65" gradientUnits="userSpaceOnUse" xlink:href="#a"/>
  <linearGradient id="ba" x1="306.69" x2="317.93" gradientTransform="matrix(.38235 -.66225 .64372 .37165 -187.94 458.19)" gradientUnits="userSpaceOnUse" xlink:href="#a"/>
  <linearGradient id="aq" x1="306.69" x2="317.93" gradientTransform="matrix(-.38235 -.66225 .64372 -.37165 50.698 604.46)" gradientUnits="userSpaceOnUse" xlink:href="#a"/>
  <linearGradient id="ag" x1="107.24" x2="115.84" gradientUnits="userSpaceOnUse" xlink:href="#a"/>
  <linearGradient id="bg" x1="306.69" x2="317.93" gradientTransform="matrix(.38235 -.66225 .64372 .37165 298.57 364.16)" gradientUnits="userSpaceOnUse" xlink:href="#a"/>
  <linearGradient id="ck" x1="306.69" x2="317.93" gradientTransform="matrix(-.38235 -.66225 .64372 -.37165 537.32 696.58)" gradientUnits="userSpaceOnUse" xlink:href="#a"/>
  <linearGradient id="dg" x1="648.17" x2="656.77" gradientUnits="userSpaceOnUse" xlink:href="#a"/>
  <linearGradient id="bh" x1="306.69" x2="317.93" gradientTransform="matrix(.38235 -.66225 .64372 .37165 298.24 550.19)" gradientUnits="userSpaceOnUse" xlink:href="#a"/>
  <linearGradient id="cl" x1="306.69" x2="317.93" gradientTransform="matrix(-.38235 -.66225 .64372 -.37165 536.99 882.61)" gradientUnits="userSpaceOnUse" xlink:href="#a"/>
  <linearGradient id="da" x1="647.85" x2="656.44" gradientUnits="userSpaceOnUse" xlink:href="#a"/>
  <linearGradient id="aw" x1="306.69" x2="317.93" gradientTransform="matrix(.38235 -.66225 .64372 .37165 -188.27 643.56)" gradientUnits="userSpaceOnUse" xlink:href="#a"/>
  <linearGradient id="am" x1="306.69" x2="317.93" gradientTransform="matrix(-.38235 -.66225 .64372 -.37165 50.37 789.83)" gradientUnits="userSpaceOnUse" xlink:href="#a"/>
  <linearGradient id="ak" x1="106.92" x2="115.51" gradientUnits="userSpaceOnUse" xlink:href="#a"/>
  <linearGradient id="bb" x1="306.69" x2="317.93" gradientTransform="matrix(.38235 -.66225 .64372 .37165 -187.29 829.91)" gradientUnits="userSpaceOnUse" xlink:href="#a"/>
  <linearGradient id="an" x1="306.69" x2="317.93" gradientTransform="matrix(-.38235 -.66225 .64372 -.37165 51.025 975.86)" gradientUnits="userSpaceOnUse" xlink:href="#a"/>
  <linearGradient id="ah" x1="107.57" x2="116.16" gradientUnits="userSpaceOnUse" xlink:href="#a"/>
  <linearGradient id="bd" x1="306.69" x2="317.93" gradientTransform="matrix(.38235 -.66225 .64372 .37165 299.22 735.56)" gradientUnits="userSpaceOnUse" xlink:href="#a"/>
  <linearGradient id="cm" x1="306.69" x2="317.93" gradientTransform="matrix(-.38235 -.66225 .64372 -.37165 537.97 1068)" gradientUnits="userSpaceOnUse" xlink:href="#a"/>
  <linearGradient id="db" x1="648.83" x2="657.42" gradientUnits="userSpaceOnUse" xlink:href="#a"/>
  <linearGradient id="be" x1="306.69" x2="317.93" gradientTransform="matrix(.38235 -.66225 .64372 .37165 298.88 178.57)" gradientUnits="userSpaceOnUse" xlink:href="#a"/>
  <linearGradient id="ci" x1="306.69" x2="317.93" gradientTransform="matrix(-.38235 -.66225 .64372 -.37165 537.63 511)" gradientUnits="userSpaceOnUse" xlink:href="#a"/>
  <linearGradient id="df" x1="648.49" x2="657.08" gradientUnits="userSpaceOnUse" xlink:href="#a"/>
  <linearGradient id="ay" x1="306.69" x2="317.93" gradientTransform="matrix(.38235 -.66225 .64372 .37165 -187.63 272.6)" gradientUnits="userSpaceOnUse" xlink:href="#a"/>
  <linearGradient id="ap" x1="306.69" x2="317.93" gradientTransform="matrix(-.38235 -.66225 .64372 -.37165 51.01 418.88)" gradientUnits="userSpaceOnUse" xlink:href="#a"/>
  <linearGradient id="ae" x1="107.56" x2="116.15" gradientUnits="userSpaceOnUse" xlink:href="#a"/>
  <linearGradient id="ax" x1="306.69" x2="317.93" gradientTransform="matrix(.38235 -.66225 .64372 .37165 -134.12 179.42)" gradientUnits="userSpaceOnUse" xlink:href="#a"/>
  <linearGradient id="br" x1="306.69" x2="317.93" gradientTransform="matrix(-.38235 -.66225 .64372 -.37165 483.76 417.9)" gradientUnits="userSpaceOnUse" xlink:href="#a"/>
  <linearGradient id="cn" x1="306.69" x2="317.93" gradientTransform="matrix(-.38235 -.66225 .64372 -.37165 158.49 418.47)" gradientUnits="userSpaceOnUse" xlink:href="#a"/>
  <linearGradient id="cf" x1="215.04" x2="223.63" gradientUnits="userSpaceOnUse" xlink:href="#a"/>
  <linearGradient id="dl" x1="306.69" x2="317.93" gradientTransform="matrix(.38235 -.66225 .64372 .37165 -25.834 179.27)" gradientUnits="userSpaceOnUse" xlink:href="#a"/>
  <linearGradient id="ef" x1="306.69" x2="317.93" gradientTransform="matrix(.38235 -.66225 .64372 .37165 190.43 178.63)" gradientUnits="userSpaceOnUse" xlink:href="#a"/>
  <linearGradient id="dz" x1="306.69" x2="317.93" gradientTransform="matrix(-.38235 -.66225 .64372 -.37165 375.2 418.27)" gradientUnits="userSpaceOnUse" xlink:href="#a"/>
  <linearGradient id="dw" x1="540.02" x2="548.62" gradientUnits="userSpaceOnUse" xlink:href="#a"/>
  <linearGradient id="w" x1="306.69" x2="317.93" gradientTransform="matrix(.38235 -.66225 .64372 .37165 82.009 178.62)" gradientUnits="userSpaceOnUse" xlink:href="#a"/>
  <linearGradient id="q" x1="306.69" x2="317.93" gradientTransform="matrix(-.38235 -.66225 .64372 -.37165 266.78 418.27)" gradientUnits="userSpaceOnUse" xlink:href="#a"/>
  <linearGradient id="l" x1="431.6" x2="440.19" gradientUnits="userSpaceOnUse" xlink:href="#a"/>
  <linearGradient id="i" x1="323.33" x2="331.92" gradientUnits="userSpaceOnUse" xlink:href="#a"/>
  <linearGradient id="bf" x1="306.69" x2="317.93" gradientTransform="matrix(.38235 -.66225 .64372 .37165 300.03 921.43)" gradientUnits="userSpaceOnUse" xlink:href="#a"/>
  <linearGradient id="cj" x1="306.69" x2="317.93" gradientTransform="matrix(-.38235 -.66225 .64372 -.37165 538.77 1253.8)" gradientUnits="userSpaceOnUse" xlink:href="#a"/>
  <linearGradient id="de" x1="649.63" x2="658.22" gradientUnits="userSpaceOnUse" xlink:href="#a"/>
  <linearGradient id="az" x1="306.69" x2="317.93" gradientTransform="matrix(.38235 -.66225 .64372 .37165 -186.48 1015.5)" gradientUnits="userSpaceOnUse" xlink:href="#a"/>
  <linearGradient id="ao" x1="306.69" x2="317.93" gradientTransform="matrix(-.38235 -.66225 .64372 -.37165 52.157 1161.7)" gradientUnits="userSpaceOnUse" xlink:href="#a"/>
  <linearGradient id="af" x1="108.7" x2="117.29" gradientUnits="userSpaceOnUse" xlink:href="#a"/>
  <linearGradient id="ab" x1="306.69" x2="317.93" gradientTransform="matrix(-.38235 -.66225 .64372 -.37165 105.58 1254)" gradientUnits="userSpaceOnUse" xlink:href="#a"/>
  <linearGradient id="bl" x1="306.69" x2="317.93" gradientTransform="matrix(.38235 -.66225 .64372 .37165 245.69 1014.4)" gradientUnits="userSpaceOnUse" xlink:href="#a"/>
  <linearGradient id="cr" x1="306.69" x2="317.93" gradientTransform="matrix(.38235 -.66225 .64372 .37165 -79 1015.1)" gradientUnits="userSpaceOnUse" xlink:href="#a"/>
  <linearGradient id="cg" x1="216.19" x2="224.78" gradientUnits="userSpaceOnUse" xlink:href="#a"/>
  <linearGradient id="ed" x1="306.69" x2="317.93" gradientTransform="matrix(-.38235 -.66225 .64372 -.37165 430.8 1253.8)" gradientUnits="userSpaceOnUse" xlink:href="#a"/>
  <linearGradient id="dx" x1="541.17" x2="549.76" gradientUnits="userSpaceOnUse" xlink:href="#a"/>
  <linearGradient id="et" x1="306.69" x2="317.93" gradientTransform="matrix(-.38235 -.66225 .64372 -.37165 213.87 1254)" gradientUnits="userSpaceOnUse" xlink:href="#a"/>
  <linearGradient id="g" x1="306.69" x2="317.93" gradientTransform="matrix(.38235 -.66225 .64372 .37165 137.37 1014.4)" gradientUnits="userSpaceOnUse" xlink:href="#a"/>
  <linearGradient id="u" x1="306.69" x2="317.93" gradientTransform="matrix(.38235 -.66225 .64372 .37165 29.287 1014.8)" gradientUnits="userSpaceOnUse" xlink:href="#a"/>
  <linearGradient id="s" x1="306.69" x2="317.93" gradientTransform="matrix(-.38235 -.66225 .64372 -.37165 322.38 1253.8)" gradientUnits="userSpaceOnUse" xlink:href="#a"/>
  <linearGradient id="m" x1="432.75" x2="441.34" gradientUnits="userSpaceOnUse" xlink:href="#a"/>
  <linearGradient id="j" x1="324.47" x2="333.07" gradientUnits="userSpaceOnUse" xlink:href="#a"/>
  <radialGradient id="b" cx="211.08" cy="248.98" r="10.858" gradientUnits="userSpaceOnUse">
   <stop stop-color="#8b8bad" offset="0"/>
   <stop stop-color="#3e3d52" offset="1"/>
  </radialGradient>
 </defs>
 <g transform="translate(-100.5 -65.317)">
  <path transform="translate(173.14 9.9215)" d="m218.99 252.04a10.708 10.708 0 1 1 -21.416 0 10.708 10.708 0 1 1 21.416 0z" fill="url(#b)"/>
  <path transform="translate(227.23 40.628)" d="m218.99 252.04a10.708 10.708 0 1 1 -21.416 0 10.708 10.708 0 1 1 21.416 0z" fill="url(#b)"/>
  <path transform="translate(227.29 102.65)" d="m218.99 252.04a10.708 10.708 0 1 1 -21.416 0 10.708 10.708 0 1 1 21.416 0z" fill="url(#b)"/>
  <path transform="translate(173.1 133.47)" d="m218.99 252.04a10.708 10.708 0 1 1 -21.416 0 10.708 10.708 0 1 1 21.416 0z" fill="url(#b)"/>
  <path transform="translate(119.1 102.58)" d="m218.99 252.04a10.708 10.708 0 1 1 -21.416 0 10.708 10.708 0 1 1 21.416 0z" fill="url(#b)"/>
  <path transform="translate(119.03 40.628)" d="m218.99 252.04a10.708 10.708 0 1 1 -21.416 0 10.708 10.708 0 1 1 21.416 0z" fill="url(#b)"/>
  <path d="m323.13 302.5s1.744-0.69051 4.1812-0.69051 4.1812 0.69051 4.1812 0.69051v43.192s-1.802 0.55768-4.1812 0.55768-4.1812-0.55768-4.1812-0.55768v-43.192z" fill="url(#k)"/>
  <path d="m431.4 301.86s1.744-0.69051 4.1812-0.69051 4.1812 0.69051 4.1812 0.69051v43.192s-1.802 0.55768-4.1812 0.55768-4.1812-0.55768-4.1812-0.55768v-43.192z" fill="url(#n)"/>
  <path d="m337.54 291.88s-1.47-1.1651-2.6886-3.2758-1.4926-3.9663-1.4926-3.9663l37.406-21.596s1.384 1.2817 2.5736 3.3422 1.6077 3.8999 1.6077 3.8999l-37.406 21.596z" fill="url(#r)"/>
  <path d="m391.99 384.59s-1.47-1.1651-2.6886-3.2758-1.4926-3.9663-1.4926-3.9663l37.406-21.596s1.384 1.2817 2.5736 3.3422 1.6077 3.8999 1.6077 3.8999l-37.406 21.596z" fill="url(#t)"/>
  <path d="m333.54 363.14s0.27399-1.8556 1.4926-3.9663 2.6886-3.2758 2.6886-3.2758l37.406 21.596s-0.41802 1.8394-1.6077 3.8999-2.5736 3.3422-2.5736 3.3422l-37.406-21.596z" fill="url(#v)"/>
  <path d="m387.41 269.77s0.27398-1.8556 1.4926-3.9663 2.6886-3.2758 2.6886-3.2758l37.406 21.596s-0.41802 1.8394-1.6077 3.8999-2.5736 3.3422-2.5736 3.3422l-37.406-21.596z" fill="url(#z)"/>
  <path transform="translate(281.3 133.54)" d="m218.99 252.04a10.708 10.708 0 1 1 -21.416 0 10.708 10.708 0 1 1 21.416 0z" fill="url(#b)"/>
  <path transform="translate(281.37 195.56)" d="m218.99 252.04a10.708 10.708 0 1 1 -21.416 0 10.708 10.708 0 1 1 21.416 0z" fill="url(#b)"/>
  <path transform="translate(227.32 226.39)" d="m218.99 252.04a10.708 10.708 0 1 1 -21.416 0 10.708 10.708 0 1 1 21.416 0z" fill="url(#b)"/>
  <path transform="translate(173.32 195.49)" d="m218.99 252.04a10.708 10.708 0 1 1 -21.416 0 10.708 10.708 0 1 1 21.416 0z" fill="url(#b)"/>
  <path d="m377.35 395.41s1.744-0.69051 4.1812-0.69051 4.1812 0.69051 4.1812 0.69051v43.192s-1.802 0.55768-4.1812 0.55768-4.1812-0.55768-4.1812-0.55768v-43.192z" fill="url(#c)"/>
  <path d="m485.62 394.77s1.744-0.69051 4.1812-0.69051 4.1812 0.69051 4.1812 0.69051v43.192s-1.802 0.55768-4.1812 0.55768-4.1812-0.55768-4.1812-0.55768v-43.192z" fill="url(#d)"/>
  <path d="m446.21 477.5s-1.47-1.1651-2.6886-3.2758-1.4926-3.9663-1.4926-3.9663l37.406-21.596s1.384 1.2817 2.5736 3.3422 1.6077 3.8999 1.6077 3.8999l-37.406 21.596z" fill="url(#e)"/>
  <path d="m387.76 456.05s0.27399-1.8556 1.4926-3.9663 2.6886-3.2758 2.6886-3.2758l37.406 21.596s-0.41802 1.8394-1.6077 3.8999-2.5736 3.3422-2.5736 3.3422l-37.406-21.596z" fill="url(#f)"/>
  <path d="m441.63 362.68s0.27398-1.8556 1.4926-3.9663 2.6886-3.2758 2.6886-3.2758l37.406 21.596s-0.41802 1.8394-1.6077 3.8999-2.5736 3.3422-2.5736 3.3422l-37.406-21.596z" fill="url(#h)"/>
  <path transform="translate(173.23 195.49)" d="m218.99 252.04a10.708 10.708 0 1 1 -21.416 0 10.708 10.708 0 1 1 21.416 0z" fill="url(#b)"/>
  <path transform="translate(119.04 226.32)" d="m218.99 252.04a10.708 10.708 0 1 1 -21.416 0 10.708 10.708 0 1 1 21.416 0z" fill="url(#b)"/>
  <path transform="translate(65.039 195.42)" d="m218.99 252.04a10.708 10.708 0 1 1 -21.416 0 10.708 10.708 0 1 1 21.416 0z" fill="url(#b)"/>
  <path transform="translate(64.967 133.47)" d="m218.99 252.04a10.708 10.708 0 1 1 -21.416 0 10.708 10.708 0 1 1 21.416 0z" fill="url(#b)"/>
  <path d="m269.07 395.34s1.744-0.69051 4.1812-0.69051 4.1812 0.69051 4.1812 0.69051v43.192s-1.802 0.55768-4.1812 0.55768-4.1812-0.55768-4.1812-0.55768v-43.192z" fill="url(#er)"/>
  <path d="m377.34 394.7s1.744-0.69051 4.1812-0.69051 4.1812 0.69051 4.1812 0.69051v43.192s-1.802 0.55768-4.1812 0.55768-4.1812-0.55768-4.1812-0.55768v-43.192z" fill="url(#es)"/>
  <path d="m283.48 384.72s-1.47-1.1651-2.6886-3.2758-1.4926-3.9663-1.4926-3.9663l37.406-21.596s1.384 1.2817 2.5736 3.3422 1.6077 3.8999 1.6077 3.8999l-37.406 21.596z" fill="url(#eu)"/>
  <path d="m337.93 477.43s-1.47-1.1651-2.6886-3.2758-1.4926-3.9663-1.4926-3.9663l37.406-21.596s1.384 1.2817 2.5736 3.3422 1.6077 3.8999 1.6077 3.8999l-37.406 21.596z" fill="url(#ev)"/>
  <path d="m279.48 455.98s0.27399-1.8556 1.4926-3.9663 2.6886-3.2758 2.6886-3.2758l37.406 21.596s-0.41802 1.8394-1.6077 3.8999-2.5736 3.3422-2.5736 3.3422l-37.406-21.596z" fill="url(#ew)"/>
  <path transform="translate(227.6 288.44)" d="m218.99 252.04a10.708 10.708 0 1 1 -21.416 0 10.708 10.708 0 1 1 21.416 0z" fill="url(#b)"/>
  <path transform="translate(173.41 319.27)" d="m218.99 252.04a10.708 10.708 0 1 1 -21.416 0 10.708 10.708 0 1 1 21.416 0z" fill="url(#b)"/>
  <path transform="translate(119.41 288.37)" d="m218.99 252.04a10.708 10.708 0 1 1 -21.416 0 10.708 10.708 0 1 1 21.416 0z" fill="url(#b)"/>
  <path d="m323.44 488.29s1.744-0.69051 4.1812-0.69051 4.1812 0.69051 4.1812 0.69051v43.192s-1.802 0.55768-4.1812 0.55768-4.1812-0.55768-4.1812-0.55768v-43.192z" fill="url(#ek)"/>
  <path d="m431.71 487.65s1.744-0.69051 4.1812-0.69051 4.1812 0.69051 4.1812 0.69051v43.192s-1.802 0.55768-4.1812 0.55768-4.1812-0.55768-4.1812-0.55768v-43.192z" fill="url(#em)"/>
  <path d="m392.3 570.38s-1.47-1.1651-2.6886-3.2758-1.4926-3.9663-1.4926-3.9663l37.406-21.596s1.384 1.2817 2.5736 3.3422 1.6077 3.8999 1.6077 3.8999l-37.406 21.596z" fill="url(#eo)"/>
  <path d="m333.85 548.94s0.27399-1.8556 1.4926-3.9663 2.6886-3.2758 2.6886-3.2758l37.406 21.596s-0.41802 1.8394-1.6077 3.8999-2.5736 3.3422-2.5736 3.3422l-37.406-21.596z" fill="url(#eq)"/>
  <path transform="translate(281.56 9.9279)" d="m218.99 252.04a10.708 10.708 0 1 1 -21.416 0 10.708 10.708 0 1 1 21.416 0z" fill="url(#b)"/>
  <path transform="translate(335.65 40.635)" d="m218.99 252.04a10.708 10.708 0 1 1 -21.416 0 10.708 10.708 0 1 1 21.416 0z" fill="url(#b)"/>
  <path transform="translate(335.72 102.65)" d="m218.99 252.04a10.708 10.708 0 1 1 -21.416 0 10.708 10.708 0 1 1 21.416 0z" fill="url(#b)"/>
  <path d="m539.83 301.86s1.744-0.69051 4.1812-0.69051 4.1812 0.69051 4.1812 0.69051v43.192s-1.802 0.55768-4.1812 0.55768-4.1812-0.55768-4.1812-0.55768v-43.192z" fill="url(#dy)"/>
  <path d="m445.96 291.89s-1.47-1.1651-2.6886-3.2758-1.4926-3.9663-1.4926-3.9663l37.406-21.596s1.384 1.2817 2.5736 3.3422 1.6077 3.8999 1.6077 3.8999l-37.406 21.596z" fill="url(#ec)"/>
  <path d="m500.41 384.59s-1.47-1.1651-2.6886-3.2758-1.4926-3.9663-1.4926-3.9663l37.406-21.596s1.384 1.2817 2.5736 3.3422 1.6077 3.8999 1.6077 3.8999l-37.406 21.596z" fill="url(#ee)"/>
  <path d="m495.83 269.78s0.27398-1.8556 1.4926-3.9663 2.6886-3.2758 2.6886-3.2758l37.406 21.596s-0.41802 1.8394-1.6077 3.8999-2.5736 3.3422-2.5736 3.3422l-37.406-21.596z" fill="url(#ei)"/>
  <path transform="translate(227.27 -82.797)" d="m218.99 252.04a10.708 10.708 0 1 1 -21.416 0 10.708 10.708 0 1 1 21.416 0z" fill="url(#b)"/>
  <path transform="translate(281.36 -52.09)" d="m218.99 252.04a10.708 10.708 0 1 1 -21.416 0 10.708 10.708 0 1 1 21.416 0z" fill="url(#b)"/>
  <path transform="translate(173.15 -52.09)" d="m218.99 252.04a10.708 10.708 0 1 1 -21.416 0 10.708 10.708 0 1 1 21.416 0z" fill="url(#b)"/>
  <path d="m377.26 209.78s1.744-0.69052 4.1812-0.69052 4.1812 0.69052 4.1812 0.69052v43.192s-1.802 0.55768-4.1812 0.55768-4.1812-0.55768-4.1812-0.55768v-43.192z" fill="url(#dq)"/>
  <path d="m485.53 209.14s1.744-0.69051 4.1812-0.69051 4.1812 0.69051 4.1812 0.69051v43.192s-1.802 0.55768-4.1812 0.55768-4.1812-0.55768-4.1812-0.55768v-43.192z" fill="url(#dt)"/>
  <path d="m391.67 199.16s-1.47-1.1651-2.6886-3.2758-1.4926-3.9663-1.4926-3.9663l37.406-21.596s1.384 1.2817 2.5736 3.3422 1.6077 3.8999 1.6077 3.8999l-37.406 21.596z" fill="url(#du)"/>
  <path d="m441.54 177.05s0.27398-1.8556 1.4926-3.9663 2.6886-3.2758 2.6886-3.2758l37.406 21.596s-0.41802 1.8394-1.6077 3.8999-2.5736 3.3422-2.5736 3.3422l-37.406-21.596z" fill="url(#dv)"/>
  <path transform="translate(119.16 -82.797)" d="m218.99 252.04a10.708 10.708 0 1 1 -21.416 0 10.708 10.708 0 1 1 21.416 0z" fill="url(#b)"/>
  <path transform="translate(65.124 9.8568)" d="m218.99 252.04a10.708 10.708 0 1 1 -21.416 0 10.708 10.708 0 1 1 21.416 0z" fill="url(#b)"/>
  <path transform="translate(65.051 -52.09)" d="m218.99 252.04a10.708 10.708 0 1 1 -21.416 0 10.708 10.708 0 1 1 21.416 0z" fill="url(#b)"/>
  <path d="m269.16 209.78s1.744-0.69051 4.1812-0.69051 4.1812 0.69051 4.1812 0.69051v43.192s-1.802 0.55768-4.1812 0.55768-4.1812-0.55768-4.1812-0.55768v-43.192z" fill="url(#dh)"/>
  <path d="m283.57 199.16s-1.47-1.1651-2.6886-3.2758-1.4926-3.9663-1.4926-3.9663l37.406-21.596s1.384 1.2817 2.5736 3.3422 1.6077 3.8999 1.6077 3.8999l-37.406 21.596z" fill="url(#di)"/>
  <path d="m279.57 270.42s0.27399-1.8556 1.4926-3.9663 2.6886-3.2758 2.6886-3.2758l37.406 21.596s-0.41802 1.8394-1.6077 3.8999-2.5736 3.3422-2.5736 3.3422l-37.406-21.596z" fill="url(#dm)"/>
  <path d="m333.43 177.05s0.27398-1.8556 1.4926-3.9663 2.6886-3.2758 2.6886-3.2758l37.406 21.596s-0.41802 1.8394-1.6077 3.8999-2.5736 3.3422-2.5736 3.3422l-37.406-21.596z" fill="url(#dn)"/>
  <path transform="translate(335.78 226.31)" d="m218.99 252.04a10.708 10.708 0 1 1 -21.416 0 10.708 10.708 0 1 1 21.416 0z" fill="url(#b)"/>
  <path transform="translate(335.84 288.33)" d="m218.99 252.04a10.708 10.708 0 1 1 -21.416 0 10.708 10.708 0 1 1 21.416 0z" fill="url(#b)"/>
  <path transform="translate(281.65 319.15)" d="m218.99 252.04a10.708 10.708 0 1 1 -21.416 0 10.708 10.708 0 1 1 21.416 0z" fill="url(#b)"/>
  <path d="m539.95 487.54s1.744-0.69051 4.1812-0.69051 4.1812 0.69051 4.1812 0.69051v43.192s-1.802 0.55768-4.1812 0.55768-4.1812-0.55768-4.1812-0.55768v-43.192z" fill="url(#cu)"/>
  <path d="m500.54 570.27s-1.47-1.1651-2.6886-3.2758-1.4926-3.9663-1.4926-3.9663l37.406-21.596s1.384 1.2817 2.5736 3.3422 1.6077 3.8999 1.6077 3.8999l-37.406 21.596z" fill="url(#cw)"/>
  <path d="m442.09 548.82s0.27399-1.8556 1.4926-3.9663 2.6886-3.2758 2.6886-3.2758l37.406 21.596s-0.41802 1.8394-1.6077 3.8999-2.5736 3.3422-2.5736 3.3422l-37.406-21.596z" fill="url(#cy)"/>
  <path d="m495.95 455.45s0.27398-1.8556 1.4926-3.9663 2.6886-3.2758 2.6886-3.2758l37.406 21.596s-0.41802 1.8394-1.6077 3.8999-2.5736 3.3422-2.5736 3.3422l-37.406-21.596z" fill="url(#cz)"/>
  <path transform="translate(10.812 102.78)" d="m218.99 252.04a10.708 10.708 0 1 1 -21.416 0 10.708 10.708 0 1 1 21.416 0z" fill="url(#b)"/>
  <path transform="translate(10.739 40.836)" d="m218.99 252.04a10.708 10.708 0 1 1 -21.416 0 10.708 10.708 0 1 1 21.416 0z" fill="url(#b)"/>
  <path d="m214.84 302.7s1.744-0.69051 4.1812-0.69051 4.1812 0.69051 4.1812 0.69051v43.192s-1.802 0.55768-4.1812 0.55768-4.1812-0.55768-4.1812-0.55768v-43.192z" fill="url(#ch)"/>
  <path d="m229.25 292.09s-1.47-1.1651-2.6886-3.2758-1.4926-3.9663-1.4926-3.9663l37.406-21.596s1.384 1.2817 2.5736 3.3422 1.6077 3.8999 1.6077 3.8999l-37.406 21.596z" fill="url(#cq)"/>
  <path d="m225.25 363.35s0.27399-1.8556 1.4926-3.9663 2.6886-3.2758 2.6886-3.2758l37.406 21.596s-0.41802 1.8394-1.6077 3.8999-2.5736 3.3422-2.5736 3.3422l-37.406-21.596z" fill="url(#cs)"/>
  <path transform="translate(65.385 319.2)" d="m218.99 252.04a10.708 10.708 0 1 1 -21.416 0 10.708 10.708 0 1 1 21.416 0z" fill="url(#b)"/>
  <path transform="translate(11.381 288.3)" d="m218.99 252.04a10.708 10.708 0 1 1 -21.416 0 10.708 10.708 0 1 1 21.416 0z" fill="url(#b)"/>
  <path transform="translate(11.005 226.36)" d="m218.99 252.04a10.708 10.708 0 1 1 -21.416 0 10.708 10.708 0 1 1 21.416 0z" fill="url(#b)"/>
  <path d="m215.41 488.22s1.744-0.69051 4.1812-0.69051 4.1812 0.69051 4.1812 0.69051v43.192s-1.802 0.55768-4.1812 0.55768-4.1812-0.55768-4.1812-0.55768v-43.192z" fill="url(#bz)"/>
  <path d="m229.82 477.61s-1.47-1.1651-2.6886-3.2758-1.4926-3.9663-1.4926-3.9663l37.406-21.596s1.384 1.2817 2.5736 3.3422 1.6077 3.8999 1.6077 3.8999l-37.406 21.596z" fill="url(#ca)"/>
  <path d="m284.27 570.31s-1.47-1.1651-2.6886-3.2758-1.4926-3.9663-1.4926-3.9663l37.406-21.596s1.384 1.2817 2.5736 3.3422 1.6077 3.8999 1.6077 3.8999l-37.406 21.596z" fill="url(#cc)"/>
  <path d="m225.82 548.87s0.27399-1.8556 1.4926-3.9663 2.6886-3.2758 2.6886-3.2758l37.406 21.596s-0.41802 1.8394-1.6077 3.8999-2.5736 3.3422-2.5736 3.3422l-37.406-21.596z" fill="url(#ce)"/>
  <path transform="translate(335.67 -83.15)" d="m218.99 252.04a10.708 10.708 0 1 1 -21.416 0 10.708 10.708 0 1 1 21.416 0z" fill="url(#b)"/>
  <path transform="translate(389.76 -52.443)" d="m218.99 252.04a10.708 10.708 0 1 1 -21.416 0 10.708 10.708 0 1 1 21.416 0z" fill="url(#b)"/>
  <path transform="translate(389.82 9.5766)" d="m218.99 252.04a10.708 10.708 0 1 1 -21.416 0 10.708 10.708 0 1 1 21.416 0z" fill="url(#b)"/>
  <path d="m593.93 208.78s1.744-0.69051 4.1812-0.69051 4.1812 0.69051 4.1812 0.69051v43.192s-1.802 0.55768-4.1812 0.55768-4.1812-0.55768-4.1812-0.55768v-43.192z" fill="url(#bp)"/>
  <path d="m500.07 198.81s-1.47-1.1651-2.6886-3.2758-1.4926-3.9663-1.4926-3.9663l37.406-21.596s1.384 1.2817 2.5736 3.3422 1.6077 3.8999 1.6077 3.8999l-37.406 21.596z" fill="url(#bq)"/>
  <path d="m554.52 291.51s-1.47-1.1651-2.6886-3.2758-1.4926-3.9663-1.4926-3.9663l37.406-21.596s1.384 1.2817 2.5736 3.3422 1.6077 3.8999 1.6077 3.8999l-37.406 21.596z" fill="url(#bu)"/>
  <path d="m549.94 176.7s0.27398-1.8556 1.4926-3.9663 2.6886-3.2758 2.6886-3.2758l37.406 21.596s-0.41802 1.8394-1.6077 3.8999-2.5736 3.3422-2.5736 3.3422l-37.406-21.596z" fill="url(#bx)"/>
  <path transform="translate(389.77 133.55)" d="m218.99 252.04a10.708 10.708 0 1 1 -21.416 0 10.708 10.708 0 1 1 21.416 0z" fill="url(#b)"/>
  <path transform="translate(389.83 195.56)" d="m218.99 252.04a10.708 10.708 0 1 1 -21.416 0 10.708 10.708 0 1 1 21.416 0z" fill="url(#b)"/>
  <path d="m593.94 394.77s1.744-0.69051 4.1812-0.69051 4.1812 0.69051 4.1812 0.69051v43.192s-1.802 0.55768-4.1812 0.55768-4.1812-0.55768-4.1812-0.55768v-43.192z" fill="url(#bj)"/>
  <path d="m554.53 477.5s-1.47-1.1651-2.6886-3.2758-1.4926-3.9663-1.4926-3.9663l37.406-21.596s1.384 1.2817 2.5736 3.3422 1.6077 3.8999 1.6077 3.8999l-37.406 21.596z" fill="url(#bk)"/>
  <path d="m549.95 362.69s0.27398-1.8556 1.4926-3.9663 2.6886-3.2758 2.6886-3.2758l37.406 21.596s-0.41802 1.8394-1.6077 3.8999-2.5736 3.3422-2.5736 3.3422l-37.406-21.596z" fill="url(#bm)"/>
  <path transform="translate(10.876 -82.646)" d="m218.99 252.04a10.708 10.708 0 1 1 -21.416 0 10.708 10.708 0 1 1 21.416 0z" fill="url(#b)"/>
  <path transform="translate(-43.164 10.008)" d="m218.99 252.04a10.708 10.708 0 1 1 -21.416 0 10.708 10.708 0 1 1 21.416 0z" fill="url(#b)"/>
  <path transform="translate(-43.237 -51.939)" d="m218.99 252.04a10.708 10.708 0 1 1 -21.416 0 10.708 10.708 0 1 1 21.416 0z" fill="url(#b)"/>
  <path d="m160.87 209.93s1.744-0.69051 4.1812-0.69051 4.1812 0.69051 4.1812 0.69051v43.192s-1.802 0.55768-4.1812 0.55768-4.1812-0.55768-4.1812-0.55768v-43.192z" fill="url(#al)"/>
  <path d="m175.28 199.31s-1.47-1.1651-2.6886-3.2758-1.4926-3.9663-1.4926-3.9663l37.406-21.596s1.384 1.2817 2.5736 3.3422 1.6077 3.8999 1.6077 3.8999l-37.406 21.596z" fill="url(#at)"/>
  <path d="m171.28 270.57s0.27399-1.8556 1.4926-3.9663 2.6886-3.2758 2.6886-3.2758l37.406 21.596s-0.41802 1.8394-1.6077 3.8999-2.5736 3.3422-2.5736 3.3422l-37.406-21.596z" fill="url(#bc)"/>
  <path d="m225.15 177.2s0.27398-1.8556 1.4926-3.9663 2.6886-3.2758 2.6886-3.2758l37.406 21.596s-0.41802 1.8394-1.6077 3.8999-2.5736 3.3422-2.5736 3.3422l-37.406-21.596z" fill="url(#bi)"/>
  <path transform="translate(-43.251 195.46)" d="m218.99 252.04a10.708 10.708 0 1 1 -21.416 0 10.708 10.708 0 1 1 21.416 0z" fill="url(#b)"/>
  <path transform="translate(-43.324 133.52)" d="m218.99 252.04a10.708 10.708 0 1 1 -21.416 0 10.708 10.708 0 1 1 21.416 0z" fill="url(#b)"/>
  <path d="m160.78 395.39s1.744-0.69051 4.1812-0.69051 4.1812 0.69051 4.1812 0.69051v43.192s-1.802 0.55768-4.1812 0.55768-4.1812-0.55768-4.1812-0.55768v-43.192z" fill="url(#aa)"/>
  <path d="m175.19 384.77s-1.47-1.1651-2.6886-3.2758-1.4926-3.9663-1.4926-3.9663l37.406-21.596s1.384 1.2817 2.5736 3.3422 1.6077 3.8999 1.6077 3.8999l-37.406 21.596z" fill="url(#ac)"/>
  <path d="m171.34 456.18s0.27399-1.8556 1.4926-3.9663 2.6886-3.2758 2.6886-3.2758l37.406 21.596s-0.41802 1.8394-1.6077 3.8999-2.5736 3.3422-2.5736 3.3422l-37.406-21.596z" fill="url(#ad)"/>
  <path transform="translate(173.93 381.44)" d="m218.99 252.04a10.708 10.708 0 1 1 -21.416 0 10.708 10.708 0 1 1 21.416 0z" fill="url(#b)"/>
  <path transform="translate(228.03 412.15)" d="m218.99 252.04a10.708 10.708 0 1 1 -21.416 0 10.708 10.708 0 1 1 21.416 0z" fill="url(#b)"/>
  <path transform="translate(119.82 412.15)" d="m218.99 252.04a10.708 10.708 0 1 1 -21.416 0 10.708 10.708 0 1 1 21.416 0z" fill="url(#b)"/>
  <path d="m338.34 663.4s-1.47-1.1651-2.6886-3.2758-1.4926-3.9663-1.4926-3.9663l37.406-21.596s1.384 1.2817 2.5736 3.3422 1.6077 3.8999 1.6077 3.8999l-37.406 21.596z" fill="url(#p)"/>
  <path d="m388.2 641.29s0.27398-1.8556 1.4926-3.9663 2.6886-3.2758 2.6886-3.2758l37.406 21.596s-0.41802 1.8394-1.6077 3.8999-2.5736 3.3422-2.5736 3.3422l-37.406-21.596z" fill="url(#y)"/>
  <path transform="translate(282.36 381.45)" d="m218.99 252.04a10.708 10.708 0 1 1 -21.416 0 10.708 10.708 0 1 1 21.416 0z" fill="url(#b)"/>
  <path transform="translate(336.45 412.15)" d="m218.99 252.04a10.708 10.708 0 1 1 -21.416 0 10.708 10.708 0 1 1 21.416 0z" fill="url(#b)"/>
  <path d="m446.76 663.4s-1.47-1.1651-2.6886-3.2758-1.4926-3.9663-1.4926-3.9663l37.406-21.596s1.384 1.2817 2.5736 3.3422 1.6077 3.8999 1.6077 3.8999l-37.406 21.596z" fill="url(#eb)"/>
  <path d="m496.63 641.29s0.27398-1.8556 1.4926-3.9663 2.6886-3.2758 2.6886-3.2758l37.406 21.596s-0.41802 1.8394-1.6077 3.8999-2.5736 3.3422-2.5736 3.3422l-37.406-21.596z" fill="url(#eh)"/>
  <path d="m378.05 581.3s1.744-0.69052 4.1812-0.69052 4.1812 0.69052 4.1812 0.69052v43.192s-1.802 0.55768-4.1812 0.55768-4.1812-0.55768-4.1812-0.55768v-43.192z" fill="url(#dp)"/>
  <path d="m486.33 580.66s1.744-0.69051 4.1812-0.69051 4.1812 0.69051 4.1812 0.69051v43.192s-1.802 0.55768-4.1812 0.55768-4.1812-0.55768-4.1812-0.55768v-43.192z" fill="url(#ds)"/>
  <path transform="translate(65.919 381.37)" d="m218.99 252.04a10.708 10.708 0 1 1 -21.416 0 10.708 10.708 0 1 1 21.416 0z" fill="url(#b)"/>
  <path d="m269.95 581.3s1.744-0.69051 4.1812-0.69051 4.1812 0.69051 4.1812 0.69051v43.192s-1.802 0.55768-4.1812 0.55768-4.1812-0.55768-4.1812-0.55768v-43.192z" fill="url(#dd)"/>
  <path d="m280.36 641.94s0.27399-1.8556 1.4926-3.9663 2.6886-3.2758 2.6886-3.2758l37.406 21.596s-0.41802 1.8394-1.6077 3.8999-2.5736 3.3422-2.5736 3.3422l-37.406-21.596z" fill="url(#dk)"/>
  <path transform="translate(11.534 412.35)" d="m218.99 252.04a10.708 10.708 0 1 1 -21.416 0 10.708 10.708 0 1 1 21.416 0z" fill="url(#b)"/>
  <path d="m230.05 663.61s-1.47-1.1651-2.6886-3.2758-1.4926-3.9663-1.4926-3.9663l37.406-21.596s1.384 1.2817 2.5736 3.3422 1.6077 3.8999 1.6077 3.8999l-37.406 21.596z" fill="url(#cp)"/>
  <path transform="translate(390.56 319.08)" d="m218.99 252.04a10.708 10.708 0 1 1 -21.416 0 10.708 10.708 0 1 1 21.416 0z" fill="url(#b)"/>
  <path transform="translate(390.62 381.09)" d="m218.99 252.04a10.708 10.708 0 1 1 -21.416 0 10.708 10.708 0 1 1 21.416 0z" fill="url(#b)"/>
  <path d="m594.73 580.3s1.744-0.69051 4.1812-0.69051 4.1812 0.69051 4.1812 0.69051v43.192s-1.802 0.55768-4.1812 0.55768-4.1812-0.55768-4.1812-0.55768v-43.192z" fill="url(#bo)"/>
  <path d="m555.32 663.03s-1.47-1.1651-2.6886-3.2758-1.4926-3.9663-1.4926-3.9663l37.406-21.596s1.384 1.2817 2.5736 3.3422 1.6077 3.8999 1.6077 3.8999l-37.406 21.596z" fill="url(#bt)"/>
  <path d="m550.74 548.22s0.27398-1.8556 1.4926-3.9663 2.6886-3.2758 2.6886-3.2758l37.406 21.596s-0.41802 1.8394-1.6077 3.8999-2.5736 3.3422-2.5736 3.3422l-37.406-21.596z" fill="url(#bw)"/>
  <path transform="translate(-42.369 381.53)" d="m218.99 252.04a10.708 10.708 0 1 1 -21.416 0 10.708 10.708 0 1 1 21.416 0z" fill="url(#b)"/>
  <path transform="translate(-42.441 319.58)" d="m218.99 252.04a10.708 10.708 0 1 1 -21.416 0 10.708 10.708 0 1 1 21.416 0z" fill="url(#b)"/>
  <path d="m161.66 581.45s1.744-0.69051 4.1812-0.69051 4.1812 0.69051 4.1812 0.69051v43.192s-1.802 0.55768-4.1812 0.55768-4.1812-0.55768-4.1812-0.55768v-43.192z" fill="url(#aj)"/>
  <path d="m176.07 570.83s-1.47-1.1651-2.6886-3.2758-1.4926-3.9663-1.4926-3.9663l37.406-21.596s1.384 1.2817 2.5736 3.3422 1.6077 3.8999 1.6077 3.8999l-37.406 21.596z" fill="url(#as)"/>
  <path d="m172.07 642.09s0.27399-1.8556 1.4926-3.9663 2.6886-3.2758 2.6886-3.2758l37.406 21.596s-0.41802 1.8394-1.6077 3.8999-2.5736 3.3422-2.5736 3.3422l-37.406-21.596z" fill="url(#av)"/>
  <path transform="translate(174.05 381.53)" d="m218.99 252.04a10.708 10.708 0 1 1 -21.416 0 10.708 10.708 0 1 1 21.416 0z" fill="url(#b)"/>
  <path transform="translate(228.34 474.48)" d="m218.99 252.04a10.708 10.708 0 1 1 -21.416 0 10.708 10.708 0 1 1 21.416 0z" fill="url(#b)"/>
  <path transform="translate(174.15 505.31)" d="m218.99 252.04a10.708 10.708 0 1 1 -21.416 0 10.708 10.708 0 1 1 21.416 0z" fill="url(#b)"/>
  <path transform="translate(120.14 474.41)" d="m218.99 252.04a10.708 10.708 0 1 1 -21.416 0 10.708 10.708 0 1 1 21.416 0z" fill="url(#b)"/>
  <path d="m324.17 674.33s1.744-0.69051 4.1812-0.69051 4.1812 0.69051 4.1812 0.69051v43.192s-1.802 0.55768-4.1812 0.55768-4.1812-0.55768-4.1812-0.55768v-43.192z" fill="url(#ej)"/>
  <path d="m432.45 673.69s1.744-0.69051 4.1812-0.69051 4.1812 0.69051 4.1812 0.69051v43.192s-1.802 0.55768-4.1812 0.55768-4.1812-0.55768-4.1812-0.55768v-43.192z" fill="url(#el)"/>
  <path d="m393.04 756.42s-1.47-1.1651-2.6886-3.2758-1.4926-3.9663-1.4926-3.9663l37.406-21.596s1.384 1.2817 2.5736 3.3422 1.6077 3.8999 1.6077 3.8999l-37.406 21.596z" fill="url(#en)"/>
  <path d="m334.59 734.98s0.27399-1.8556 1.4926-3.9663 2.6886-3.2758 2.6886-3.2758l37.406 21.596s-0.41802 1.8394-1.6077 3.8999-2.5736 3.3422-2.5736 3.3422l-37.406-21.596z" fill="url(#ep)"/>
  <path transform="translate(336.57 474.37)" d="m218.99 252.04a10.708 10.708 0 1 1 -21.416 0 10.708 10.708 0 1 1 21.416 0z" fill="url(#b)"/>
  <path transform="translate(282.38 505.19)" d="m218.99 252.04a10.708 10.708 0 1 1 -21.416 0 10.708 10.708 0 1 1 21.416 0z" fill="url(#b)"/>
  <path d="m540.68 673.57s1.744-0.69051 4.1812-0.69051 4.1812 0.69051 4.1812 0.69051v43.192s-1.802 0.55768-4.1812 0.55768-4.1812-0.55768-4.1812-0.55768v-43.192z" fill="url(#ct)"/>
  <path d="m501.27 756.3s-1.47-1.1651-2.6886-3.2758-1.4926-3.9663-1.4926-3.9663l37.406-21.596s1.384 1.2817 2.5736 3.3422 1.6077 3.8999 1.6077 3.8999l-37.406 21.596z" fill="url(#cv)"/>
  <path d="m442.82 734.86s0.27399-1.8556 1.4926-3.9663 2.6886-3.2758 2.6886-3.2758l37.406 21.596s-0.41802 1.8394-1.6077 3.8999-2.5736 3.3422-2.5736 3.3422l-37.406-21.596z" fill="url(#cx)"/>
  <path transform="translate(66.118 505.24)" d="m218.99 252.04a10.708 10.708 0 1 1 -21.416 0 10.708 10.708 0 1 1 21.416 0z" fill="url(#b)"/>
  <path transform="translate(12.113 474.34)" d="m218.99 252.04a10.708 10.708 0 1 1 -21.416 0 10.708 10.708 0 1 1 21.416 0z" fill="url(#b)"/>
  <path d="m216.14 674.26s1.744-0.69051 4.1812-0.69051 4.1812 0.69051 4.1812 0.69051v43.192s-1.802 0.55768-4.1812 0.55768-4.1812-0.55768-4.1812-0.55768v-43.192z" fill="url(#by)"/>
  <path d="m285.01 756.35s-1.47-1.1651-2.6886-3.2758-1.4926-3.9663-1.4926-3.9663l37.406-21.596s1.384 1.2817 2.5736 3.3422 1.6077 3.8999 1.6077 3.8999l-37.406 21.596z" fill="url(#cb)"/>
  <path d="m226.56 734.91s0.27399-1.8556 1.4926-3.9663 2.6886-3.2758 2.6886-3.2758l37.406 21.596s-0.41802 1.8394-1.6077 3.8999-2.5736 3.3422-2.5736 3.3422l-37.406-21.596z" fill="url(#cd)"/>
  <path transform="translate(174.67 567.48)" d="m218.99 252.04a10.708 10.708 0 1 1 -21.416 0 10.708 10.708 0 1 1 21.416 0z" fill="url(#b)"/>
  <path transform="translate(228.76 598.19)" d="m218.99 252.04a10.708 10.708 0 1 1 -21.416 0 10.708 10.708 0 1 1 21.416 0z" fill="url(#b)"/>
  <path transform="translate(120.55 598.19)" d="m218.99 252.04a10.708 10.708 0 1 1 -21.416 0 10.708 10.708 0 1 1 21.416 0z" fill="url(#b)"/>
  <path d="m339.07 849.44s-1.47-1.1651-2.6886-3.2758-1.4926-3.9663-1.4926-3.9663l37.406-21.596s1.384 1.2817 2.5736 3.3422 1.6077 3.8999 1.6077 3.8999l-37.406 21.596z" fill="url(#o)"/>
  <path d="m388.94 827.33s0.27398-1.8556 1.4926-3.9663 2.6886-3.2758 2.6886-3.2758l37.406 21.596s-0.41802 1.8394-1.6077 3.8999-2.5736 3.3422-2.5736 3.3422l-37.406-21.596z" fill="url(#x)"/>
  <path transform="translate(283.09 567.49)" d="m218.99 252.04a10.708 10.708 0 1 1 -21.416 0 10.708 10.708 0 1 1 21.416 0z" fill="url(#b)"/>
  <path transform="translate(337.18 598.19)" d="m218.99 252.04a10.708 10.708 0 1 1 -21.416 0 10.708 10.708 0 1 1 21.416 0z" fill="url(#b)"/>
  <path d="m447.49 849.44s-1.47-1.1651-2.6886-3.2758-1.4926-3.9663-1.4926-3.9663l37.406-21.596s1.384 1.2817 2.5736 3.3422 1.6077 3.8999 1.6077 3.8999l-37.406 21.596z" fill="url(#ea)"/>
  <path d="m497.36 827.33s0.27398-1.8556 1.4926-3.9663 2.6886-3.2758 2.6886-3.2758l37.406 21.596s-0.41802 1.8394-1.6077 3.8999-2.5736 3.3422-2.5736 3.3422l-37.406-21.596z" fill="url(#eg)"/>
  <path d="m378.79 767.34s1.744-0.69052 4.1812-0.69052 4.1812 0.69052 4.1812 0.69052v43.192s-1.802 0.55768-4.1812 0.55768-4.1812-0.55768-4.1812-0.55768v-43.192z" fill="url(#do)"/>
  <path d="m487.06 766.69s1.744-0.69051 4.1812-0.69051 4.1812 0.69051 4.1812 0.69051v43.192s-1.802 0.55768-4.1812 0.55768-4.1812-0.55768-4.1812-0.55768v-43.192z" fill="url(#dr)"/>
  <path transform="translate(66.652 567.41)" d="m218.99 252.04a10.708 10.708 0 1 1 -21.416 0 10.708 10.708 0 1 1 21.416 0z" fill="url(#b)"/>
  <path d="m270.68 767.34s1.744-0.69051 4.1812-0.69051 4.1812 0.69051 4.1812 0.69051v43.192s-1.802 0.55768-4.1812 0.55768-4.1812-0.55768-4.1812-0.55768v-43.192z" fill="url(#dc)"/>
  <path d="m281.09 827.98s0.27399-1.8556 1.4926-3.9663 2.6886-3.2758 2.6886-3.2758l37.406 21.596s-0.41802 1.8394-1.6077 3.8999-2.5736 3.3422-2.5736 3.3422l-37.406-21.596z" fill="url(#dj)"/>
  <path transform="translate(12.267 598.39)" d="m218.99 252.04a10.708 10.708 0 1 1 -21.416 0 10.708 10.708 0 1 1 21.416 0z" fill="url(#b)"/>
  <path d="m230.78 849.65s-1.47-1.1651-2.6886-3.2758-1.4926-3.9663-1.4926-3.9663l37.406-21.596s1.384 1.2817 2.5736 3.3422 1.6077 3.8999 1.6077 3.8999l-37.406 21.596z" fill="url(#co)"/>
  <path transform="translate(391.29 505.11)" d="m218.99 252.04a10.708 10.708 0 1 1 -21.416 0 10.708 10.708 0 1 1 21.416 0z" fill="url(#b)"/>
  <path transform="translate(391.35 567.13)" d="m218.99 252.04a10.708 10.708 0 1 1 -21.416 0 10.708 10.708 0 1 1 21.416 0z" fill="url(#b)"/>
  <path d="m595.46 766.34s1.744-0.69051 4.1812-0.69051 4.1812 0.69051 4.1812 0.69051v43.192s-1.802 0.55768-4.1812 0.55768-4.1812-0.55768-4.1812-0.55768v-43.192z" fill="url(#bn)"/>
  <path d="m556.05 849.07s-1.47-1.1651-2.6886-3.2758-1.4926-3.9663-1.4926-3.9663l37.406-21.596s1.384 1.2817 2.5736 3.3422 1.6077 3.8999 1.6077 3.8999l-37.406 21.596z" fill="url(#bs)"/>
  <path d="m551.47 734.26s0.27398-1.8556 1.4926-3.9663 2.6886-3.2758 2.6886-3.2758l37.406 21.596s-0.41802 1.8394-1.6077 3.8999-2.5736 3.3422-2.5736 3.3422l-37.406-21.596z" fill="url(#bv)"/>
  <path transform="translate(-41.636 567.57)" d="m218.99 252.04a10.708 10.708 0 1 1 -21.416 0 10.708 10.708 0 1 1 21.416 0z" fill="url(#b)"/>
  <path transform="translate(-41.709 505.62)" d="m218.99 252.04a10.708 10.708 0 1 1 -21.416 0 10.708 10.708 0 1 1 21.416 0z" fill="url(#b)"/>
  <path d="m162.4 767.49s1.744-0.69051 4.1812-0.69051 4.1812 0.69051 4.1812 0.69051v43.192s-1.802 0.55768-4.1812 0.55768-4.1812-0.55768-4.1812-0.55768v-43.192z" fill="url(#ai)"/>
  <path d="m176.81 756.87s-1.47-1.1651-2.6886-3.2758-1.4926-3.9663-1.4926-3.9663l37.406-21.596s1.384 1.2817 2.5736 3.3422 1.6077 3.8999 1.6077 3.8999l-37.406 21.596z" fill="url(#ar)"/>
  <path d="m172.81 828.13s0.27399-1.8556 1.4926-3.9663 2.6886-3.2758 2.6886-3.2758l37.406 21.596s-0.41802 1.8394-1.6077 3.8999-2.5736 3.3422-2.5736 3.3422l-37.406-21.596z" fill="url(#au)"/>
  <path transform="translate(-96.673 103.18)" d="m218.99 252.04a10.708 10.708 0 1 1 -21.416 0 10.708 10.708 0 1 1 21.416 0z" fill="url(#b)"/>
  <path transform="translate(-96.745 41.237)" d="m218.99 252.04a10.708 10.708 0 1 1 -21.416 0 10.708 10.708 0 1 1 21.416 0z" fill="url(#b)"/>
  <path d="m107.36 303.11s1.744-0.69051 4.1812-0.69051 4.1812 0.69051 4.1812 0.69051v43.192s-1.802 0.55768-4.1812 0.55768-4.1812-0.55768-4.1812-0.55768v-43.192z" fill="url(#ag)"/>
  <path d="m121.77 292.49s-1.47-1.1651-2.6886-3.2758-1.4926-3.9663-1.4926-3.9663l37.406-21.596s1.384 1.2817 2.5736 3.3422 1.6077 3.8999 1.6077 3.8999l-37.406 21.596z" fill="url(#aq)"/>
  <path d="m117.77 363.75s0.27399-1.8556 1.4926-3.9663 2.6886-3.2758 2.6886-3.2758l37.406 21.596s-0.41802 1.8394-1.6077 3.8999-2.5736 3.3422-2.5736 3.3422l-37.406-21.596z" fill="url(#ba)"/>
  <path transform="translate(444.26 102.38)" d="m218.99 252.04a10.708 10.708 0 1 1 -21.416 0 10.708 10.708 0 1 1 21.416 0z" fill="url(#b)"/>
  <path transform="translate(444.18 40.43)" d="m218.99 252.04a10.708 10.708 0 1 1 -21.416 0 10.708 10.708 0 1 1 21.416 0z" fill="url(#b)"/>
  <path d="m648.29 302.3s1.744-0.69051 4.1812-0.69051 4.1812 0.69051 4.1812 0.69051v43.192s-1.802 0.55768-4.1812 0.55768-4.1812-0.55768-4.1812-0.55768v-43.192z" fill="url(#dg)"/>
  <path d="m608.39 384.61s-1.47-1.1651-2.6886-3.2758-1.4926-3.9663-1.4926-3.9663l37.406-21.596s1.384 1.2817 2.5736 3.3422 1.6077 3.8999 1.6077 3.8999l-37.406 21.596z" fill="url(#ck)"/>
  <path d="m604.28 269.72s0.27398-1.8556 1.4926-3.9663 2.6886-3.2758 2.6886-3.2758l37.406 21.596s-0.41802 1.8394-1.6077 3.8999-2.5736 3.3422-2.5736 3.3422l-37.406-21.596z" fill="url(#bg)"/>
  <path transform="translate(443.93 288.4)" d="m218.99 252.04a10.708 10.708 0 1 1 -21.416 0 10.708 10.708 0 1 1 21.416 0z" fill="url(#b)"/>
  <path transform="translate(443.86 226.46)" d="m218.99 252.04a10.708 10.708 0 1 1 -21.416 0 10.708 10.708 0 1 1 21.416 0z" fill="url(#b)"/>
  <path d="m647.96 488.33s1.744-0.69051 4.1812-0.69051 4.1812 0.69051 4.1812 0.69051v43.192s-1.802 0.55768-4.1812 0.55768-4.1812-0.55768-4.1812-0.55768v-43.192z" fill="url(#da)"/>
  <path d="m608.06 570.63s-1.47-1.1651-2.6886-3.2758-1.4926-3.9663-1.4926-3.9663l37.406-21.596s1.384 1.2817 2.5736 3.3422 1.6077 3.8999 1.6077 3.8999l-37.406 21.596z" fill="url(#cl)"/>
  <path d="m603.95 455.75s0.27398-1.8556 1.4926-3.9663 2.6886-3.2758 2.6886-3.2758l37.406 21.596s-0.41802 1.8394-1.6077 3.8999-2.5736 3.3422-2.5736 3.3422l-37.406-21.596z" fill="url(#bh)"/>
  <path transform="translate(-97 288.55)" d="m218.99 252.04a10.708 10.708 0 1 1 -21.416 0 10.708 10.708 0 1 1 21.416 0z" fill="url(#b)"/>
  <path transform="translate(-97.073 226.61)" d="m218.99 252.04a10.708 10.708 0 1 1 -21.416 0 10.708 10.708 0 1 1 21.416 0z" fill="url(#b)"/>
  <path d="m107.03 488.48s1.744-0.69051 4.1812-0.69051 4.1812 0.69051 4.1812 0.69051v43.192s-1.802 0.55768-4.1812 0.55768-4.1812-0.55768-4.1812-0.55768v-43.192z" fill="url(#ak)"/>
  <path d="m121.44 477.86s-1.47-1.1651-2.6886-3.2758-1.4926-3.9663-1.4926-3.9663l37.406-21.596s1.384 1.2817 2.5736 3.3422 1.6077 3.8999 1.6077 3.8999l-37.406 21.596z" fill="url(#am)"/>
  <path d="m117.44 549.12s0.27399-1.8556 1.4926-3.9663 2.6886-3.2758 2.6886-3.2758l37.406 21.596s-0.41802 1.8394-1.6077 3.8999-2.5736 3.3422-2.5736 3.3422l-37.406-21.596z" fill="url(#aw)"/>
  <path transform="translate(-96.017 474.91)" d="m218.99 252.04a10.708 10.708 0 1 1 -21.416 0 10.708 10.708 0 1 1 21.416 0z" fill="url(#b)"/>
  <path transform="translate(-96.418 412.63)" d="m218.99 252.04a10.708 10.708 0 1 1 -21.416 0 10.708 10.708 0 1 1 21.416 0z" fill="url(#b)"/>
  <path d="m107.69 674.5s1.744-0.69051 4.1812-0.69051 4.1812 0.69051 4.1812 0.69051v43.192s-1.802 0.55768-4.1812 0.55768-4.1812-0.55768-4.1812-0.55768v-43.192z" fill="url(#ah)"/>
  <path d="m122.1 663.89s-1.47-1.1651-2.6886-3.2758-1.4926-3.9663-1.4926-3.9663l37.406-21.596s1.384 1.2817 2.5736 3.3422 1.6077 3.8999 1.6077 3.8999l-37.406 21.596z" fill="url(#an)"/>
  <path d="m118.43 735.47s0.27399-1.8556 1.4926-3.9663 2.6886-3.2758 2.6886-3.2758l37.406 21.596s-0.41802 1.8394-1.6077 3.8999-2.5736 3.3422-2.5736 3.3422l-37.406-21.596z" fill="url(#bb)"/>
  <path transform="translate(444.91 473.77)" d="m218.99 252.04a10.708 10.708 0 1 1 -21.416 0 10.708 10.708 0 1 1 21.416 0z" fill="url(#b)"/>
  <path transform="translate(444.84 411.83)" d="m218.99 252.04a10.708 10.708 0 1 1 -21.416 0 10.708 10.708 0 1 1 21.416 0z" fill="url(#b)"/>
  <path d="m648.94 673.7s1.744-0.69051 4.1812-0.69051 4.1812 0.69051 4.1812 0.69051v43.192s-1.802 0.55768-4.1812 0.55768-4.1812-0.55768-4.1812-0.55768v-43.192z" fill="url(#db)"/>
  <path d="m609.04 756.01s-1.47-1.1651-2.6886-3.2758-1.4926-3.9663-1.4926-3.9663l37.406-21.596s1.384 1.2817 2.5736 3.3422 1.6077 3.8999 1.6077 3.8999l-37.406 21.596z" fill="url(#cm)"/>
  <path d="m604.93 641.12s0.27398-1.8556 1.4926-3.9663 2.6886-3.2758 2.6886-3.2758l37.406 21.596s-0.41802 1.8394-1.6077 3.8999-2.5736 3.3422-2.5736 3.3422l-37.406-21.596z" fill="url(#bd)"/>
  <path transform="translate(173.45 -175.67)" d="m218.99 252.04a10.708 10.708 0 1 1 -21.416 0 10.708 10.708 0 1 1 21.416 0z" fill="url(#b)"/>
  <path transform="translate(227.54 -144.96)" d="m218.99 252.04a10.708 10.708 0 1 1 -21.416 0 10.708 10.708 0 1 1 21.416 0z" fill="url(#b)"/>
  <path transform="translate(119.34 -144.96)" d="m218.99 252.04a10.708 10.708 0 1 1 -21.416 0 10.708 10.708 0 1 1 21.416 0z" fill="url(#b)"/>
  <path d="m323.44 116.91s1.744-0.69051 4.1812-0.69051 4.1812 0.69051 4.1812 0.69051v43.192s-1.802 0.55768-4.1812 0.55768-4.1812-0.55768-4.1812-0.55768v-43.192z" fill="url(#i)"/>
  <path d="m431.71 116.27s1.744-0.69051 4.1812-0.69051 4.1812 0.69051 4.1812 0.69051v43.192s-1.802 0.55768-4.1812 0.55768-4.1812-0.55768-4.1812-0.55768v-43.192z" fill="url(#l)"/>
  <path d="m337.85 106.29s-1.47-1.1651-2.6886-3.2758-1.4926-3.9663-1.4926-3.9663l37.406-21.596s1.384 1.2817 2.5736 3.3422 1.6077 3.8999 1.6077 3.8999l-37.406 21.596z" fill="url(#q)"/>
  <path d="m387.72 84.183s0.27398-1.8556 1.4926-3.9663 2.6886-3.2758 2.6886-3.2758l37.406 21.596s-0.41802 1.8394-1.6077 3.8999-2.5736 3.3422-2.5736 3.3422l-37.406-21.596z" fill="url(#w)"/>
  <path transform="translate(281.87 -175.66)" d="m218.99 252.04a10.708 10.708 0 1 1 -21.416 0 10.708 10.708 0 1 1 21.416 0z" fill="url(#b)"/>
  <path transform="translate(335.97 -144.95)" d="m218.99 252.04a10.708 10.708 0 1 1 -21.416 0 10.708 10.708 0 1 1 21.416 0z" fill="url(#b)"/>
  <path d="m540.14 116.27s1.744-0.69051 4.1812-0.69051 4.1812 0.69051 4.1812 0.69051v43.192s-1.802 0.55768-4.1812 0.55768-4.1812-0.55768-4.1812-0.55768v-43.192z" fill="url(#dw)"/>
  <path d="m446.28 106.3s-1.47-1.1651-2.6886-3.2758-1.4926-3.9663-1.4926-3.9663l37.406-21.596s1.384 1.2817 2.5736 3.3422 1.6077 3.8999 1.6077 3.8999l-37.406 21.596z" fill="url(#dz)"/>
  <path d="m496.14 84.189s0.27398-1.8556 1.4926-3.9663 2.6886-3.2758 2.6886-3.2758l37.406 21.596s-0.41802 1.8394-1.6077 3.8999-2.5736 3.3422-2.5736 3.3422l-37.406-21.596z" fill="url(#ef)"/>
  <path transform="translate(65.436 -175.73)" d="m218.99 252.04a10.708 10.708 0 1 1 -21.416 0 10.708 10.708 0 1 1 21.416 0z" fill="url(#b)"/>
  <path d="m279.88 84.834s0.27399-1.8556 1.4926-3.9663 2.6886-3.2758 2.6886-3.2758l37.406 21.596s-0.41802 1.8394-1.6077 3.8999-2.5736 3.3422-2.5736 3.3422l-37.406-21.596z" fill="url(#dl)"/>
  <path transform="translate(11.051 -144.75)" d="m218.99 252.04a10.708 10.708 0 1 1 -21.416 0 10.708 10.708 0 1 1 21.416 0z" fill="url(#b)"/>
  <path d="m215.16 117.12s1.744-0.69051 4.1812-0.69051 4.1812 0.69051 4.1812 0.69051v43.192s-1.802 0.55768-4.1812 0.55768-4.1812-0.55768-4.1812-0.55768v-43.192z" fill="url(#cf)"/>
  <path d="m229.57 106.5s-1.47-1.1651-2.6886-3.2758-1.4926-3.9663-1.4926-3.9663l37.406-21.596s1.384 1.2817 2.5736 3.3422 1.6077 3.8999 1.6077 3.8999l-37.406 21.596z" fill="url(#cn)"/>
  <path transform="translate(390.14 -176.01)" d="m218.99 252.04a10.708 10.708 0 1 1 -21.416 0 10.708 10.708 0 1 1 21.416 0z" fill="url(#b)"/>
  <path d="m554.83 105.93s-1.47-1.1651-2.6886-3.2758-1.4926-3.9663-1.4926-3.9663l37.406-21.596s1.384 1.2817 2.5736 3.3422 1.6077 3.8999 1.6077 3.8999l-37.406 21.596z" fill="url(#br)"/>
  <path transform="translate(-42.852 -175.58)" d="m218.99 252.04a10.708 10.708 0 1 1 -21.416 0 10.708 10.708 0 1 1 21.416 0z" fill="url(#b)"/>
  <path d="m171.59 84.985s0.27399-1.8556 1.4926-3.9663 2.6886-3.2758 2.6886-3.2758l37.406 21.596s-0.41802 1.8394-1.6077 3.8999-2.5736 3.3422-2.5736 3.3422l-37.406-21.596z" fill="url(#ax)"/>
  <path transform="translate(-96.36 -82.404)" d="m218.99 252.04a10.708 10.708 0 1 1 -21.416 0 10.708 10.708 0 1 1 21.416 0z" fill="url(#b)"/>
  <path transform="translate(-96.433 -144.35)" d="m218.99 252.04a10.708 10.708 0 1 1 -21.416 0 10.708 10.708 0 1 1 21.416 0z" fill="url(#b)"/>
  <path d="m107.67 117.52s1.744-0.69051 4.1812-0.69051 4.1812 0.69051 4.1812 0.69051v43.192s-1.802 0.55768-4.1812 0.55768-4.1812-0.55768-4.1812-0.55768v-43.192z" fill="url(#ae)"/>
  <path d="m122.08 106.9s-1.47-1.1651-2.6886-3.2758-1.4926-3.9663-1.4926-3.9663l37.406-21.596s1.384 1.2817 2.5736 3.3422 1.6077 3.8999 1.6077 3.8999l-37.406 21.596z" fill="url(#ap)"/>
  <path d="m118.08 178.16s0.27399-1.8556 1.4926-3.9663 2.6886-3.2758 2.6886-3.2758l37.406 21.596s-0.41802 1.8394-1.6077 3.8999-2.5736 3.3422-2.5736 3.3422l-37.406-21.596z" fill="url(#ay)"/>
  <path transform="translate(444.57 -83.21)" d="m218.99 252.04a10.708 10.708 0 1 1 -21.416 0 10.708 10.708 0 1 1 21.416 0z" fill="url(#b)"/>
  <path transform="translate(444.5 -145.16)" d="m218.99 252.04a10.708 10.708 0 1 1 -21.416 0 10.708 10.708 0 1 1 21.416 0z" fill="url(#b)"/>
  <path d="m648.6 116.71s1.744-0.69051 4.1812-0.69051 4.1812 0.69051 4.1812 0.69051v43.192s-1.802 0.55768-4.1812 0.55768-4.1812-0.55768-4.1812-0.55768v-43.192z" fill="url(#df)"/>
  <path d="m608.7 199.02s-1.47-1.1651-2.6886-3.2758-1.4926-3.9663-1.4926-3.9663l37.406-21.596s1.384 1.2817 2.5736 3.3422 1.6077 3.8999 1.6077 3.8999l-37.406 21.596z" fill="url(#ci)"/>
  <path d="m604.59 84.136s0.27398-1.8556 1.4926-3.9663 2.6886-3.2758 2.6886-3.2758l37.406 21.596s-0.41802 1.8394-1.6077 3.8999-2.5736 3.3422-2.5736 3.3422l-37.406-21.596z" fill="url(#be)"/>
  <path transform="translate(228.75 659.91)" d="m218.99 252.04a10.708 10.708 0 1 1 -21.416 0 10.708 10.708 0 1 1 21.416 0z" fill="url(#b)"/>
  <path transform="translate(174.56 690.74)" d="m218.99 252.04a10.708 10.708 0 1 1 -21.416 0 10.708 10.708 0 1 1 21.416 0z" fill="url(#b)"/>
  <path transform="translate(120.56 659.84)" d="m218.99 252.04a10.708 10.708 0 1 1 -21.416 0 10.708 10.708 0 1 1 21.416 0z" fill="url(#b)"/>
  <path d="m324.59 859.76s1.744-0.69051 4.1812-0.69051 4.1812 0.69051 4.1812 0.69051v43.192s-1.802 0.55768-4.1812 0.55768-4.1812-0.55768-4.1812-0.55768v-43.192z" fill="url(#j)"/>
  <path d="m432.86 859.12s1.744-0.69051 4.1812-0.69051 4.1812 0.69051 4.1812 0.69051v43.192s-1.802 0.55768-4.1812 0.55768-4.1812-0.55768-4.1812-0.55768v-43.192z" fill="url(#m)"/>
  <path d="m393.45 941.85s-1.47-1.1651-2.6886-3.2758-1.4926-3.9663-1.4926-3.9663l37.406-21.596s1.384 1.2817 2.5736 3.3422 1.6077 3.8999 1.6077 3.8999l-37.406 21.596z" fill="url(#s)"/>
  <path d="m335 920.41s0.27399-1.8556 1.4926-3.9663 2.6886-3.2758 2.6886-3.2758l37.406 21.596s-0.41802 1.8394-1.6077 3.8999-2.5736 3.3422-2.5736 3.3422l-37.406-21.596z" fill="url(#u)"/>
  <path transform="translate(282.76 690.81)" d="m218.99 252.04a10.708 10.708 0 1 1 -21.416 0 10.708 10.708 0 1 1 21.416 0z" fill="url(#b)"/>
  <path d="m443.09 919.95s0.27398-1.8556 1.4926-3.9663 2.6886-3.2758 2.6886-3.2758l37.406 21.596s-0.41802 1.8394-1.6077 3.8999-2.5736 3.3422-2.5736 3.3422l-37.406-21.596z" fill="url(#g)"/>
  <path transform="translate(66.426 690.74)" d="m218.99 252.04a10.708 10.708 0 1 1 -21.416 0 10.708 10.708 0 1 1 21.416 0z" fill="url(#b)"/>
  <path d="m284.94 941.99s-1.47-1.1651-2.6886-3.2758-1.4926-3.9663-1.4926-3.9663l37.406-21.596s1.384 1.2817 2.5736 3.3422 1.6077 3.8999 1.6077 3.8999l-37.406 21.596z" fill="url(#et)"/>
  <path transform="translate(337.17 659.92)" d="m218.99 252.04a10.708 10.708 0 1 1 -21.416 0 10.708 10.708 0 1 1 21.416 0z" fill="url(#b)"/>
  <path d="m541.28 859.13s1.744-0.69051 4.1812-0.69051 4.1812 0.69051 4.1812 0.69051v43.192s-1.802 0.55768-4.1812 0.55768-4.1812-0.55768-4.1812-0.55768v-43.192z" fill="url(#dx)"/>
  <path d="m501.87 941.86s-1.47-1.1651-2.6886-3.2758-1.4926-3.9663-1.4926-3.9663l37.406-21.596s1.384 1.2817 2.5736 3.3422 1.6077 3.8999 1.6077 3.8999l-37.406 21.596z" fill="url(#ed)"/>
  <path transform="translate(12.27 660.05)" d="m218.99 252.04a10.708 10.708 0 1 1 -21.416 0 10.708 10.708 0 1 1 21.416 0z" fill="url(#b)"/>
  <path d="m216.3 859.97s1.744-0.69051 4.1812-0.69051 4.1812 0.69051 4.1812 0.69051v43.192s-1.802 0.55768-4.1812 0.55768-4.1812-0.55768-4.1812-0.55768v-43.192z" fill="url(#cg)"/>
  <path d="m226.71 920.61s0.27399-1.8556 1.4926-3.9663 2.6886-3.2758 2.6886-3.2758l37.406 21.596s-0.41802 1.8394-1.6077 3.8999-2.5736 3.3422-2.5736 3.3422l-37.406-21.596z" fill="url(#cr)"/>
  <path transform="translate(391.23 690.81)" d="m218.99 252.04a10.708 10.708 0 1 1 -21.416 0 10.708 10.708 0 1 1 21.416 0z" fill="url(#b)"/>
  <path d="m551.4 919.95s0.27398-1.8556 1.4926-3.9663 2.6886-3.2758 2.6886-3.2758l37.406 21.596s-0.41802 1.8394-1.6077 3.8999-2.5736 3.3422-2.5736 3.3422l-37.406-21.596z" fill="url(#bl)"/>
  <path transform="translate(-41.865 690.78)" d="m218.99 252.04a10.708 10.708 0 1 1 -21.416 0 10.708 10.708 0 1 1 21.416 0z" fill="url(#b)"/>
  <path d="m176.65 942.03s-1.47-1.1651-2.6886-3.2758-1.4926-3.9663-1.4926-3.9663l37.406-21.596s1.384 1.2817 2.5736 3.3422 1.6077 3.8999 1.6077 3.8999l-37.406 21.596z" fill="url(#ab)"/>
  <path transform="translate(-95.214 660.45)" d="m218.99 252.04a10.708 10.708 0 1 1 -21.416 0 10.708 10.708 0 1 1 21.416 0z" fill="url(#b)"/>
  <path transform="translate(-95.286 598.5)" d="m218.99 252.04a10.708 10.708 0 1 1 -21.416 0 10.708 10.708 0 1 1 21.416 0z" fill="url(#b)"/>
  <path d="m108.82 860.37s1.744-0.69051 4.1812-0.69051 4.1812 0.69051 4.1812 0.69051v43.192s-1.802 0.55768-4.1812 0.55768-4.1812-0.55768-4.1812-0.55768v-43.192z" fill="url(#af)"/>
  <path d="m123.23 849.75s-1.47-1.1651-2.6886-3.2758-1.4926-3.9663-1.4926-3.9663l37.406-21.596s1.384 1.2817 2.5736 3.3422 1.6077 3.8999 1.6077 3.8999l-37.406 21.596z" fill="url(#ao)"/>
  <path d="m119.23 921.01s0.27399-1.8556 1.4926-3.9663 2.6886-3.2758 2.6886-3.2758l37.406 21.596s-0.41802 1.8394-1.6077 3.8999-2.5736 3.3422-2.5736 3.3422l-37.406-21.596z" fill="url(#az)"/>
  <path transform="translate(445.72 659.64)" d="m218.99 252.04a10.708 10.708 0 1 1 -21.416 0 10.708 10.708 0 1 1 21.416 0z" fill="url(#b)"/>
  <path transform="translate(445.64 597.7)" d="m218.99 252.04a10.708 10.708 0 1 1 -21.416 0 10.708 10.708 0 1 1 21.416 0z" fill="url(#b)"/>
  <path d="m649.75 859.57s1.744-0.69051 4.1812-0.69051 4.1812 0.69051 4.1812 0.69051v43.192s-1.802 0.55768-4.1812 0.55768-4.1812-0.55768-4.1812-0.55768v-43.192z" fill="url(#de)"/>
  <path d="m609.85 941.87s-1.47-1.1651-2.6886-3.2758-1.4926-3.9663-1.4926-3.9663l37.406-21.596s1.384 1.2817 2.5736 3.3422 1.6077 3.8999 1.6077 3.8999l-37.406 21.596z" fill="url(#cj)"/>
  <path d="m605.74 826.99s0.27398-1.8556 1.4926-3.9663 2.6886-3.2758 2.6886-3.2758l37.406 21.596s-0.41802 1.8394-1.6077 3.8999-2.5736 3.3422-2.5736 3.3422l-37.406-21.596z" fill="url(#bf)"/>
 </g>
</svg>
