<?xml version='1.0' encoding='utf-8'?>
<svg xmlns="http://www.w3.org/2000/svg" id="svg1359" version="1.1" viewBox="0 0 507.99999 285.75001" height="1080" width="1920"> <defs id="defs1353"/> <metadata id="metadata1356"> </metadata> <g transform="translate(0,-11.249992)" id="layer1"> <g id="g1927" transform="translate(1367.2596,-1686.7188)"> <rect y="1697.9688" x="-1367.2596" height="285.75" width="508" id="rect1245" style="opacity:1;vector-effect:none;fill:#f7f8fa;fill-opacity:1;stroke:none;stroke-width:1.32291663;stroke-linecap:round;stroke-linejoin:round;stroke-miterlimit:4;stroke-dasharray:none;stroke-dashoffset:0;stroke-opacity:1"/> <g id="g1291" transform="matrix(0.53323691,0,0,0.53323691,-169.39043,887.18345)"> <path style="fill:#ececec;stroke:none;stroke-width:0.26458332px;stroke-linecap:butt;stroke-linejoin:miter;stroke-opacity:1" d="m -1833.0871,1553.6187 v 198.4375 l 286.4198,165.3646 v -198.4375 z" id="path1249"/> <path style="fill:#ffffff;stroke:none;stroke-width:0.26458332px;stroke-linecap:butt;stroke-linejoin:miter;stroke-opacity:1" d="m -1821.6303,1745.4416 v -171.9792 l 263.5062,152.1355 v 171.9791 z" id="path1251"/> <path style="fill:#e6e6e6;stroke:none;stroke-width:0.26458332px;stroke-linecap:butt;stroke-linejoin:miter;stroke-opacity:1" d="m -1833.0871,1553.6187 11.4568,-6.6146 286.4198,165.3646 -11.4568,6.6146 z" id="path1253"/> <path style="fill:#cccccc;stroke:none;stroke-width:0.26458332px;stroke-linecap:butt;stroke-linejoin:miter;stroke-opacity:1" d="m -1546.6673,1718.9833 11.4568,-6.6146 v 198.4375 l -11.4568,6.6146 z" id="path1255"/> <path style="fill:#ececec;fill-opacity:1;stroke:none;stroke-width:0.26458332px;stroke-linecap:butt;stroke-linejoin:miter;stroke-opacity:1" d="m -1833.0871,1752.0562 -171.852,99.2187 286.4199,165.3646 171.8519,-99.2187 z" id="path1257"/> <path style="fill:#ececec;fill-opacity:1;stroke:none;stroke-width:0.26458332px;stroke-linecap:butt;stroke-linejoin:miter;stroke-opacity:1" d="m -2004.9391,1851.2749 v 13.2292 l 286.4199,165.3646 v -13.2292 z" id="path1259"/> <path style="fill:#cccccc;stroke:none;stroke-width:0.26458332px;stroke-linecap:butt;stroke-linejoin:miter;stroke-opacity:1" d="m -1718.5192,2029.8687 v -13.2292 l 183.3087,-105.8333 v 13.2292 z" id="path1261"/> <path style="fill:#f9f9f9;fill-opacity:1;stroke:none;stroke-width:0.26458332px;stroke-linecap:butt;stroke-linejoin:miter;stroke-opacity:1" d="m -1833.0871,1765.2854 263.5063,152.1354 -103.1112,59.5312 -263.5063,-152.1354 z" id="path1263"/> <path style="fill:#cccccc;fill-opacity:1;stroke:none;stroke-width:0.26458332px;stroke-linecap:butt;stroke-linejoin:miter;stroke-opacity:1" d="m -1844.5439,1890.9624 57.284,33.073 -34.3704,19.8437 -57.284,-33.0729 z" id="path1265"/> <path id="path1267" d="m -1833.0871,1553.6187 v 198.4375 l 286.4198,165.3646 v -198.4375 z" style="fill:#414141;fill-opacity:1;stroke:none;stroke-width:0.26458332px;stroke-linecap:butt;stroke-linejoin:miter;stroke-opacity:1"/> <path id="path1269" d="m -1833.0871,1553.6187 11.4568,-6.6146 286.4198,165.3646 -11.4568,6.6146 z" style="fill:#e6e6e6;stroke:none;stroke-width:0.26458332px;stroke-linecap:butt;stroke-linejoin:miter;stroke-opacity:1"/> <path id="path1271" d="m -1546.6673,1718.9833 11.4568,-6.6146 v 198.4375 l -11.4568,6.6146 z" style="fill:#cccccc;stroke:none;stroke-width:0.26458332px;stroke-linecap:butt;stroke-linejoin:miter;stroke-opacity:1"/> <path id="path1273" d="m -1833.0871,1752.0562 -171.852,99.2187 286.4199,165.3646 171.8519,-99.2187 z" style="fill:#ececec;fill-opacity:1;stroke:none;stroke-width:0.26458332px;stroke-linecap:butt;stroke-linejoin:miter;stroke-opacity:1"/> <path id="path1275" d="m -2004.9391,1851.2749 v 13.2292 l 286.4199,165.3646 v -13.2292 z" style="fill:#e5e5e5;fill-opacity:1;stroke:none;stroke-width:0.26458332px;stroke-linecap:butt;stroke-linejoin:miter;stroke-opacity:1"/> <path id="path1277" d="m -1718.5192,2029.8687 v -13.2292 l 183.3087,-105.8333 v 13.2292 z" style="fill:#cccccc;stroke:none;stroke-width:0.26458332px;stroke-linecap:butt;stroke-linejoin:miter;stroke-opacity:1"/> <path style="color:#000000;font-style:normal;font-variant:normal;font-weight:normal;font-stretch:normal;font-size:medium;line-height:normal;font-family:sans-serif;font-variant-ligatures:normal;font-variant-position:normal;font-variant-caps:normal;font-variant-numeric:normal;font-variant-alternates:normal;font-feature-settings:normal;text-indent:0;text-align:start;text-decoration:none;text-decoration-line:none;text-decoration-style:solid;text-decoration-color:#000000;letter-spacing:normal;word-spacing:normal;text-transform:none;writing-mode:lr-tb;direction:ltr;text-orientation:mixed;dominant-baseline:auto;baseline-shift:baseline;text-anchor:start;white-space:normal;shape-padding:0;clip-rule:nonzero;display:inline;overflow:visible;visibility:visible;opacity:1;isolation:auto;mix-blend-mode:normal;color-interpolation:sRGB;color-interpolation-filters:linearRGB;solid-color:#000000;solid-opacity:1;vector-effect:none;fill:#cccccc;fill-opacity:1;fill-rule:nonzero;stroke:none;stroke-width:0.26458332px;stroke-linecap:butt;stroke-linejoin:miter;stroke-miterlimit:4;stroke-dasharray:none;stroke-dashoffset:0;stroke-opacity:1;color-rendering:auto;image-rendering:auto;shape-rendering:auto;text-rendering:auto;enable-background:accumulate" d="m -1833.0879,1765.4371 263.2421,151.9824 -102.8476,59.3789 -263.2441,-151.9824 z" id="path1279"/> <path id="path1281" d="m -1844.5439,1890.9624 57.284,33.073 -34.3704,19.8437 -57.284,-33.0729 z" style="fill:#cccccc;fill-opacity:1;stroke:none;stroke-width:0.26458332px;stroke-linecap:butt;stroke-linejoin:miter;stroke-opacity:1"/> <path id="path1283" d="m -1821.6303,1745.5939 v -171.9792 l 263.5062,152.1354 v 171.9792 z" style="fill:#ffffff;stroke:none;stroke-width:0.26458332px;stroke-linecap:butt;stroke-linejoin:miter;stroke-opacity:1"/> <g transform="matrix(0.68753918,0.39695093,0,0.68753918,-2269.2207,-967.65821)" id="g1289"> <path style="color:#000000;font-style:normal;font-variant:normal;font-weight:normal;font-stretch:normal;font-size:medium;line-height:normal;font-family:sans-serif;font-variant-ligatures:normal;font-variant-position:normal;font-variant-caps:normal;font-variant-numeric:normal;font-variant-alternates:normal;font-feature-settings:normal;text-indent:0;text-align:start;text-decoration:none;text-decoration-line:none;text-decoration-style:solid;text-decoration-color:#000000;letter-spacing:normal;word-spacing:normal;text-transform:none;writing-mode:lr-tb;direction:ltr;text-orientation:mixed;dominant-baseline:auto;baseline-shift:baseline;text-anchor:start;white-space:normal;shape-padding:0;clip-rule:nonzero;display:inline;overflow:visible;visibility:visible;opacity:1;isolation:auto;mix-blend-mode:normal;color-interpolation:sRGB;color-interpolation-filters:linearRGB;solid-color:#000000;solid-opacity:1;vector-effect:none;fill:#5599ff;fill-opacity:1;fill-rule:evenodd;stroke:none;stroke-width:15.875;stroke-linecap:round;stroke-linejoin:round;stroke-miterlimit:4;stroke-dasharray:none;stroke-dashoffset:0;stroke-opacity:1;color-rendering:auto;image-rendering:auto;shape-rendering:auto;text-rendering:auto;enable-background:accumulate" d="m 928.98633,3381.959 a 7.9382937,7.9382937 0 0 0 -6.64258,3.2637 l -71.66992,95.5585 -20.71485,-41.4296 a 7.9382937,7.9382937 0 0 0 -12.71093,-2.0625 l -79.375,79.375 a 7.9382937,7.9382937 0 1 0 11.22461,11.2246 l 71.58789,-71.5879 21.5332,43.0664 a 7.9382937,7.9382937 0 0 0 13.44922,1.2129 l 79.375,-105.834 a 7.9382937,7.9382937 0 0 0 -6.05664,-12.7871 z" id="path1285"/> <path style="color:#000000;font-style:normal;font-variant:normal;font-weight:normal;font-stretch:normal;font-size:medium;line-height:normal;font-family:sans-serif;font-variant-ligatures:normal;font-variant-position:normal;font-variant-caps:normal;font-variant-numeric:normal;font-variant-alternates:normal;font-feature-settings:normal;text-indent:0;text-align:start;text-decoration:none;text-decoration-line:none;text-decoration-style:solid;text-decoration-color:#000000;letter-spacing:normal;word-spacing:normal;text-transform:none;writing-mode:lr-tb;direction:ltr;text-orientation:mixed;dominant-baseline:auto;baseline-shift:baseline;text-anchor:start;white-space:normal;shape-padding:0;clip-rule:nonzero;display:inline;overflow:visible;visibility:visible;opacity:1;isolation:auto;mix-blend-mode:normal;color-interpolation:sRGB;color-interpolation-filters:linearRGB;solid-color:#000000;solid-opacity:1;vector-effect:none;fill:#5599ff;fill-opacity:1;fill-rule:nonzero;stroke:none;stroke-width:42.61795807;stroke-linecap:round;stroke-linejoin:round;stroke-miterlimit:4;stroke-dasharray:none;stroke-dashoffset:0;stroke-opacity:1;color-rendering:auto;image-rendering:auto;shape-rendering:auto;text-rendering:auto;enable-background:accumulate" d="m 3569.5098,12701.047 a 21.311109,21.311109 0 0 0 -2.127,0.01 21.311109,21.311109 0 0 0 -8.0801,2.086 l -62.0547,29.957 -62.0546,29.962 a 21.311109,21.311109 0 0 0 -2.7188,36.809 l 56.9688,38.762 56.9746,38.76 a 21.311109,21.311109 0 0 0 33.2382,-16.045 l 5.084,-68.725 5.0782,-68.723 a 21.311109,21.311109 0 0 0 -20.3086,-22.855 z" transform="scale(0.26458333)" id="path1287"/> </g> </g> </g> </g> </svg>