<?xml version="1.0" encoding="UTF-8"?>
<svg viewBox="0 0 637.8 337.58" xmlns="http://www.w3.org/2000/svg" xmlns:xlink="http://www.w3.org/1999/xlink">
 <defs>
  <linearGradient id="b" x1=".1555" x2=".16241" y1="-.041745" y2=".9627">
   <stop stop-color="#fff" stop-opacity=".502" offset="0"/>
   <stop stop-color="#666" stop-opacity="0" offset="1"/>
  </linearGradient>
 </defs>
 <rect transform="rotate(90)" x="7" y="-627.8" width="321.58" height="621.8" rx="60.036" ry="60.036" fill="#baa9a9" stroke="#eae1e1" stroke-width="16"/>
 <rect x="39.154" y="33.864" width="318.2" height="245.96" rx="11.534" ry="11.534" fill="#008080" stroke="#333" stroke-width="8.238"/>
 <path d="m45.059 157.23c14.545 33.825 29.09 67.286 43.635 88.388 14.545 21.101 29.09 29.342 43.636 21.83 14.545-7.512 29.09-30.697 43.636-61.166 14.545-30.469 29.09-67.621 43.635-98.103s29.09-53.624 43.635-61.166c14.545-7.5416 29.09 0.75221 43.636 21.83 14.545 21.078 29.09 54.562 43.635 88.388" fill="none" stroke="#c8ab37" stroke-linecap="round" stroke-linejoin="round" stroke-width="5.472"/>
 <g transform="matrix(.77155 0 0 .5878 97.58 153.86)" fill="none" stroke="#000">
  <g stroke-width="2">
   <path d="m29.606-196.99v400"/>
   <path d="m129.61-196.99v400"/>
   <path d="m229.61-196.99v400"/>
  </g>
  <g stroke-width="2">
   <path d="m-70.394-96.992h400"/>
   <path d="m-70.394 3.0081h400"/>
   <path d="m-70.394 103.01h400"/>
  </g>
  <path d="m-20.394-196.99v400"/>
  <path d="m79.606-196.99v400"/>
  <path d="m179.61-196.99v400"/>
  <path d="m279.61-196.99v400"/>
  <rect x="-70.39" y="-197.6" width="400.45" height="402.58" rx="7.9579" ry="7.9579" stroke-width="3.009"/>
 </g>
 <g stroke="#333">
  <path d="m412.25 58.432h162.54c7.9233 0 14.452 12.034 14.638 26.982l0.8791 70.583c0.18616 14.948-6.0426 26.982-13.966 26.982h-162.54c-7.9232 0-14.452-12.034-14.638-26.982l-0.8791-70.583c-0.18622-14.948 6.0425-26.982 13.966-26.982z" fill="#4d4d4d" stroke-width="6.784"/>
  <g fill="#ccc">
   <rect id="a" transform="matrix(1 0 -.010104 .99995 0 0)" x="415.39" y="73.276" width="20.81" height="13.089" rx="2.7555" ry="2.7555" fill="#ccc" stroke="#333" stroke-width=".834"/>
   <use x="0.000002" y="26.589399" width="744.09448" height="1052.3622" xlink:href="#a"/>
   <use x="0.000002" y="53.178699" width="744.09448" height="1052.3622" xlink:href="#a"/>
   <use x="44.698486" y="0.000001" width="744.09448" height="1052.3622" xlink:href="#a"/>
   <use x="44.698486" y="26.589399" width="744.09448" height="1052.3622" xlink:href="#a"/>
   <use x="44.698486" y="53.178699" width="744.09448" height="1052.3622" xlink:href="#a"/>
   <use x="89.39711" y="0.000001" width="744.09448" height="1052.3622" xlink:href="#a"/>
   <use x="89.39711" y="26.589399" width="744.09448" height="1052.3622" xlink:href="#a"/>
   <use x="134.096008" y="0.000001" width="744.09448" height="1052.3622" xlink:href="#a"/>
   <use x="134.096008" y="26.589399" width="744.09448" height="1052.3622" xlink:href="#a"/>
   <use x="89.832214" y="52.419678" width="744.09448" height="1052.3622" xlink:href="#a"/>
   <use x="134.531006" y="52.419678" width="744.09448" height="1052.3622" xlink:href="#a"/>
   <use x="0.622102" y="79.169403" width="744.09448" height="1052.3622" xlink:href="#a"/>
   <use x="45.320702" y="79.169403" width="744.09448" height="1052.3622" xlink:href="#a"/>
   <use x="90.454285" y="78.4104" width="744.09448" height="1052.3622" xlink:href="#a"/>
   <use x="135.153015" y="78.4104" width="744.09448" height="1052.3622" xlink:href="#a"/>
  </g>
 </g>
 <path d="m482.08 227.8c-19.446-0.53674-30.167 28.625-15.448 42.361 12.662 14.296 38.398 4.7862 39.308-15.138 1.5038-14.223-10.288-28.202-23.859-27.223z" fill="#ccc" stroke="#4d4d4d" stroke-width="1.891"/>
 <g fill="#999">
  <path d="m502.01 252.73c0 10.544-8.548 19.092-19.092 19.092s-19.092-8.5479-19.092-19.092 8.548-19.092 19.092-19.092 19.092 8.5479 19.092 19.092" stroke="#000"/>
 </g>
 <g transform="matrix(.76508 0 0 .76508 333.09 132.52)" fill="#f2f2f2">
  <path d="m214.92 157.07c0 10.544-8.5479 19.092-19.092 19.092s-19.092-8.5479-19.092-19.092 8.548-19.092 19.092-19.092 19.092 8.5479 19.092 19.092z" stroke="#000"/>
 </g>
 <path d="m486.77 252.65c0 2.1303-1.7269 3.8572-3.8572 3.8572-2.1304 0-3.8573-1.7269-3.8573-3.8572s1.7269-3.8572 3.8573-3.8572c2.1302 0 3.8572 1.727 3.8572 3.8572z" stroke="#000"/>
 <path d="m48.646 37.757l300.16 0.2256c-43.187 149.34-213.64 59.251-306.7 213.6l0.1338-204.83c-0.40146-5.6438 1.1784-8.1924 6.4043-8.9953z" fill="url(#b)"/>
 <path d="m405.45 227.8c-19.446-0.53674-30.167 28.625-15.448 42.361 12.662 14.296 38.398 4.7862 39.308-15.138 1.5038-14.223-10.288-28.202-23.859-27.223z" fill="#ccc" stroke="#4d4d4d" stroke-width="1.891"/>
 <g fill="#999">
  <path d="m425.39 252.73c0 10.544-8.5478 19.092-19.092 19.092s-19.092-8.5479-19.092-19.092 8.5478-19.092 19.092-19.092 19.092 8.5479 19.092 19.092" stroke="#000"/>
 </g>
 <g transform="matrix(.76508 0 0 .76508 333.09 132.52)" fill="#f2f2f2">
  <path d="m114.77 157.07c0 10.544-8.5479 19.092-19.092 19.092s-19.092-8.5479-19.092-19.092 8.548-19.092 19.092-19.092 19.092 8.5479 19.092 19.092z" stroke="#000"/>
 </g>
 <path d="m410.15 252.65c0 2.1303-1.727 3.8572-3.8572 3.8572-2.1303 0-3.8572-1.7269-3.8572-3.8572s1.7269-3.8572 3.8572-3.8572 3.8572 1.727 3.8572 3.8572z" stroke="#000"/>
 <path d="m558.7 227.76c-19.446-0.53674-30.167 28.625-15.448 42.361 12.662 14.296 38.398 4.7862 39.308-15.138 1.5038-14.223-10.288-28.202-23.859-27.223z" fill="#ccc" stroke="#4d4d4d" stroke-width="1.891"/>
 <g fill="#999">
  <path d="m578.63 252.69c0 10.544-8.5478 19.092-19.092 19.092s-19.092-8.5479-19.092-19.092 8.5478-19.092 19.092-19.092 19.092 8.5479 19.092 19.092" stroke="#000"/>
 </g>
 <g transform="matrix(.76508 0 0 .76508 333.09 132.52)" fill="#f2f2f2">
  <path d="m315.07 157.01c0 10.544-8.5479 19.092-19.092 19.092s-19.092-8.5479-19.092-19.092 8.548-19.092 19.092-19.092 19.092 8.5479 19.092 19.092z" stroke="#000"/>
 </g>
 <path d="m563.4 252.61c0 2.1303-1.727 3.8572-3.8573 3.8572-2.1302 0-3.8572-1.727-3.8572-3.8572 0-2.1303 1.7269-3.8572 3.8572-3.8572s3.8573 1.7269 3.8573 3.8572z" stroke="#000"/>
</svg>
