<?xml version="1.0" encoding="UTF-8"?>
<svg viewBox="0 0 658.65002 1164" xmlns="http://www.w3.org/2000/svg" xmlns:xlink="http://www.w3.org/1999/xlink">
 <defs>
  <filter id="d">
   <feOffset dx="3" dy="3"/>
   <feGaussianBlur result="result8" stdDeviation="3"/>
   <feFlood result="result10"/>
   <feComposite in="result10" in2="SourceGraphic" operator="in" result="result9"/>
   <feBlend in="result8" in2="result9"/>
  </filter>
  <linearGradient id="b">
   <stop stop-color="#162d50" stop-opacity="0" offset="0"/>
   <stop stop-color="#162d50" offset=".28972"/>
   <stop stop-color="#214478" offset=".58627"/>
   <stop stop-color="#0055d4" offset=".91667"/>
   <stop stop-color="#0055d4" stop-opacity="0" offset="1"/>
  </linearGradient>
  <linearGradient id="a" x2="0" y1="1202.4" y2="42.388" gradientUnits="userSpaceOnUse" xlink:href="#b"/>
  <linearGradient id="c" x2="0" y1="1202.4" y2="-7.625" gradientUnits="userSpaceOnUse" xlink:href="#b"/>
 </defs>
 <g transform="matrix(-1 0 0 -1 699.32 1149.4)" fill="url(#a)" filter="url(#d)">
  <g fill="url(#a)">
   <path d="m370 82.375-90 150h60s-5 219.99-10 299.99c-40-98.013-98.685-219.37-124.06-275.96l54.062-24.031-143.22-100.44-21.219 173.62 54.812-24.406 0.28125-0.125c149.34 271.33 149.34 491.33 129.34 771.34h180c-25.731-278.83 0-500.01 129.34-771.34l0.28125 0.125 54.812 24.406-21.219-173.62-143.22 100.44 54.062 24.031c-25.377 56.589-84.062 177.94-124.06 275.96-5-80-10-299.99-10-299.99h60l-90-150z" fill="url(#c)"/>
  </g>
 </g>
</svg>
