<?xml version="1.0" encoding="UTF-8"?>
<svg viewBox="0 0 510 607" xmlns="http://www.w3.org/2000/svg" xmlns:xlink="http://www.w3.org/1999/xlink">
 <defs>
  <filter id="n" x="-.02654" y="-18.899" width="1.0531" height="38.798">
   <feGaussianBlur stdDeviation="3.93725"/>
  </filter>
  <linearGradient id="q" x2="0" y1="822.36" y2="431.93" gradientUnits="userSpaceOnUse">
   <stop stop-color="#fff" offset="0"/>
   <stop stop-color="#fff" stop-opacity="0" offset="1"/>
  </linearGradient>
  <linearGradient id="l" x1="400.64" x2="243.66" y1="250.13" y2="67.111" gradientUnits="userSpaceOnUse">
   <stop stop-color="#aa9f97" offset="0"/>
   <stop stop-color="#fefefe" offset="1"/>
  </linearGradient>
  <linearGradient id="m">
   <stop stop-color="#a59d94" offset="0"/>
   <stop stop-color="#eeeeec" offset="1"/>
  </linearGradient>
  <linearGradient id="i" x1="160.29" x2="448.29" y1="267.78" y2="320.78" gradientUnits="userSpaceOnUse">
   <stop stop-color="#aa9f97" offset="0"/>
   <stop stop-color="#60564f" offset="1"/>
  </linearGradient>
  <linearGradient id="h" x2="0" y1="366.68" y2="382.38" gradientUnits="userSpaceOnUse">
   <stop stop-color="#37a42c" offset="0"/>
   <stop stop-color="#d8e8c2" offset="1"/>
  </linearGradient>
  <linearGradient id="g" x2="0" y1="315.57" y2="325.11" gradientUnits="userSpaceOnUse">
   <stop stop-color="#555753" offset="0"/>
   <stop stop-color="#babdb6" offset=".40199"/>
   <stop stop-color="#eeeeec" offset="1"/>
  </linearGradient>
  <linearGradient id="a">
   <stop stop-color="#f3c300" offset="0"/>
   <stop stop-color="#936f00" offset="1"/>
  </linearGradient>
  <linearGradient id="b">
   <stop stop-color="#e0dcd9" offset="0"/>
   <stop stop-color="#e0dcd9" stop-opacity="0" offset="1"/>
  </linearGradient>
  <linearGradient id="k" x1="283.53" x2="329.95" y1="82.036" y2="218.46" gradientUnits="userSpaceOnUse" xlink:href="#m"/>
  <linearGradient id="j" x1="306.38" x2="289.14" y1="167.94" y2="85.8" gradientUnits="userSpaceOnUse" xlink:href="#m"/>
  <linearGradient id="f" x1="202" x2="209.75" y1="323.36" y2="320.99" gradientUnits="userSpaceOnUse" xlink:href="#a"/>
  <linearGradient id="e" x1="191.29" x2="199.04" y1="323.72" y2="321.34" gradientUnits="userSpaceOnUse" xlink:href="#a"/>
  <linearGradient id="d" x1="180.59" x2="188.34" y1="323.36" y2="320.99" gradientUnits="userSpaceOnUse" xlink:href="#a"/>
  <linearGradient id="c" x1="170.06" x2="177.81" y1="323.19" y2="320.81" gradientUnits="userSpaceOnUse" xlink:href="#a"/>
  <linearGradient id="p" x1="546" x2="518" y1="676.36" y2="288.36" gradientUnits="userSpaceOnUse" xlink:href="#b"/>
  <linearGradient id="o" x1="1094" x2="1066" y1="348" y2="-40" gradientTransform="matrix(1 0 0 .59737 -548 -756.46)" gradientUnits="userSpaceOnUse" xlink:href="#b"/>
 </defs>
 <g transform="translate(-96 -216.36)">
  <path transform="scale(1,-1)" d="m96-823.36h510v227h-510z" fill="url(#o)"/>
  <path d="m96 216.36h510v380h-510z" fill="url(#p)"/>
  <g transform="translate(36 254.92)">
   <path d="m186.28 67.111h244.67l60 183.02-362.17-0.5 57.5-182.52z" fill="url(#l)"/>
   <path d="m306.38 82.036c-66.947 0-121.22 25.984-121.22 58.062s54.272 60.094 121.22 60.094 121.22-28.015 121.22-60.094-54.272-58.062-121.22-58.062zm0 5.125c51.912 0 93.969 20.111 93.969 44.938s-42.057 44.969-93.969 44.969-94-20.143-94-44.969 42.088-44.938 94-44.938z" fill="url(#k)"/>
   <path d="m306.38 85.8c-62.608 0-113.36 24.3-113.36 54.299s50.754 54.328 113.36 54.328 113.36-24.329 113.36-54.328-50.754-54.299-113.36-54.299zm0 2.7928c48.547 0 87.878 20.808 87.878 44.025s-39.331 42.054-87.878 42.054-87.907-18.837-87.907-42.054 39.36-44.025 87.907-44.025z" fill="url(#j)"/>
   <path d="m491.29 248.78-4 82c0 7.202-5.798 13-13 13h-328c-7.202 0-13-5.798-13-13l-4-82h362z" fill="url(#i)"/>
   <g transform="translate(47.5,-100.25)">
    <path d="m402.04 361.43h6.2509c3.54 0 6.3898 2.8652 6.3898 6.4243l-0.78579 8.1002c0 3.5591-2.8498 6.4243-6.3898 6.4243h-4.6793c-3.5399 0-6.3898-2.8653-6.3898-6.4243l-0.78579-8.1002c0-3.5591 2.8498-6.4243 6.3898-6.4243z" fill="url(#h)"/>
    <path d="m402.03 361.19c-3.54 0-6.375 2.8472-6.375 6.4062l0.78125 8.125c0 0.57835 0.0775 1.1239 0.21875 1.6562l-0.75-7.7812c0-3.5591 2.835-6.4062 6.375-6.4062h6.25c2.9198 0 5.3561 1.9448 6.125 4.625l0.0312-0.21875c0-3.5591-2.8663-6.4062-6.4062-6.4062h-6.25z" fill="#b1d28f"/>
   </g>
   <path d="m462.09 268.06-0.71875 7.1562c0 3.5591-2.8351 6.4062-6.375 6.4062h-4.6875c-3.3187 0-6.0177-2.5026-6.3438-5.75l0.21875 2.3438c0 3.5591 2.8351 6.4062 6.375 6.4062h4.6875c3.5399 0 6.375-2.8472 6.375-6.4062l0.8125-8.125c0-0.71327-0.13221-1.3912-0.34375-2.0312zm-18.125 7.8125c-0.0217-0.21649-0.0312-0.43381-0.0312-0.65625l-0.53125-5.4062c-4e-3 0.0941 0 0.18613 0 0.28125l0.5625 5.7812z" fill="#574e48"/>
   <path d="m133 246.86 356 0.5" fill="#e6e5e3" filter="url(#n)" stroke="#e6e5e3" stroke-width="4"/>
   <path d="m155.09 317.69 1.7188 16h59.5v-16h-61.219z" fill="#60564f"/>
   <path d="m155.28 317.69 1.2812 15.812 14.156-13.594 20.219-2.2188h-35.656z" fill="#343839"/>
   <path d="m168.03 317.69-6.5312 6.1875 0.125 5.5 50.125-0.25 4.625-10.688 0.0625-0.75h-48.406z" fill="url(#g)"/>
   <path d="m205.5 317.36-3.6616 7.25c2.9168-0.53033 5.6616 0 5.6616 0l2.3384-7.1036-4.3384-0.14645z" fill="url(#f)"/>
   <path d="m194.79 317.72-3.6616 7.25c2.9168-0.53033 5.6616 0 5.6616 0l2.3384-7.1036-4.3384-0.14645z" fill="url(#e)"/>
   <path d="m183.71 317.61-3.2866 7c2.9168-0.53033 5.6616 0 5.6616 0l1.9634-6.8536-4.3384-0.14645z" fill="url(#d)"/>
   <path d="m173.43 317.62-3.5366 6.8125c2.9168-0.53033 5.6616 0 5.6616 0l2.2134-6.666-4.3384-0.14645z" fill="url(#c)"/>
   <path d="m450.61 309.36h3.0357c5.0454 0 10.975 4.0618 10.975 9.1071v3.0357c0 5.0454-7.798 9.1071-12.843 9.1071h0.70054c-5.0454 0-12.843-4.0618-12.843-9.1071v-3.0357c0-5.0454 5.9299-9.1071 10.975-9.1071z" fill="#4b433e"/>
   <path d="m443.94 311.53c-2.4747 1.668-4.3125 4.1472-4.3125 6.9375v3.0312c0 4.9333 7.4522 8.9188 12.5 9.0938 5.0478-0.17497 12.5-4.1605 12.5-9.0938v-3.0312c0-2.6604-1.6703-5.0254-3.9688-6.6875 0.73396 0.99689 1.1562 2.1572 1.1562 3.375v2.3438c0 3.8059-5.7263 6.8892-9.625 7.0312-3.8992-0.12677-9.6562-3.2152-9.6562-7.0312v-2.3438c0-1.3283 0.55043-2.5674 1.4062-3.625zm8.1875 19.062c-0.11468 4e-3 -0.23167 0.0312-0.34375 0.0312h0.6875c-0.11208 0-0.22907-0.0273-0.34375-0.0312z" fill="#393c3c"/>
   <path d="m446.64 309.91c-1.697 1.1438-2.9573 2.844-2.9573 4.7575v2.0787c0 3.383 5.1104 6.1162 8.572 6.2361 3.4616-0.11998 8.572-2.8531 8.572-6.2361v-2.0787c0-1.8244-1.1454-3.4462-2.7216-4.586 0.50332 0.68363 0.79291 1.4793 0.79291 2.3144v1.6072c0 2.6099-3.9269 4.7243-6.6004 4.8218-2.6739-0.0869-6.6219-2.2049-6.6219-4.8218v-1.6072c0-0.91089 0.37746-1.7606 0.96435-2.4859zm5.6147 13.072c-0.0786 3e-3 -0.15887 0.0214-0.23573 0.0214h0.47146c-0.0769 0-0.15709-0.0187-0.23573-0.0214z" fill="#393c3c"/>
   <path d="m167.41 317.72 49.144-0.17678v4.9498l-53.917-0.35356 4.773-4.4194z" fill="#343839" opacity=".60184"/>
   <path d="m161.75 325.49h50.375v3.75l-49.75-0.3125-0.625-3.4375z" fill="#f6f6f6" opacity=".60184"/>
   <path d="m185.03 264.85-3 5.2812 2.4062-0.0312v23.062c-1.8024-0.31375-3.2488-1.3741-4.3125-3.0625-0.99826-1.5846-1.625-3.7355-1.75-6.2812 1.0379-0.28719 1.8125-1.2149 1.8125-2.3438 0-1.356-1.0815-2.4688-2.4375-2.4688s-2.4688 1.1127-2.4688 2.4688c0 1.1424 0.78678 2.1006 1.8438 2.375 0.12859 2.7266 0.79249 5.0887 1.9375 6.9062 1.2574 1.996 3.1262 3.32 5.375 3.6562v11.281c-1.3393 0.28875-2.3438 1.481-2.3438 2.9062 0 1.6409 1.3278 2.9688 2.9688 2.9688s2.9688-1.3278 2.9688-2.9688c0-1.4252-1.0044-2.6175-2.3438-2.9062v-17.562c2.4596-0.2053 4.2644-1.1961 5.5-2.5625 1.2464-1.3783 1.915-3.1085 2.2812-4.7812 0.33761-1.5421 0.42311-3.0373 0.40625-4.2188h1.4062v-4.0625h-4.0938v4.0625h1.4375c0.0167 1.1155-0.0647 2.5204-0.375 3.9375-0.33541 1.532-0.95283 3.0607-2 4.2188-1.0194 1.1273-2.4426 1.9239-4.5625 2.125v-16.75l2.4062-0.0312-3.0625-5.2188z" fill="#a59a92" fill-rule="evenodd"/>
   <path d="m179.66 313.47" fill="none" stroke="#eb7331" stroke-width=".15238"/>
   <path d="m183.97 270.68" fill="none" stroke="#eb7331" stroke-width=".15238"/>
   <path d="m179.66 313.47" fill="none" stroke="#eb7331" stroke-width=".15238"/>
   <path d="m183.97 270.68" fill="none" stroke="#eb7331" stroke-width=".15238"/>
   <path d="m185.07909,265.28921-3,5.28125h.6875l2.5625-4.53125 2.625,4.46875h.1875l-3.0625-5.21875zm-.59375,6v22.3125c-1.80238-.31375-3.24884-1.37406-4.3125-3.0625-.31993-.50786-.60442-1.10021-.84375-1.71875 .28634.9213.64673,1.75916 1.09375,2.46875 1.06366,1.68844 2.51012,2.74875 4.3125,3.0625v-23.0625h-.25zm6.75,1.65625v4.0625h.25v-3.3125h3.84375v-.75h-4.09375zm1.4375,4.8125c-.0246.96391-.13119,2.07403-.375,3.1875-.33541,1.53205-.95283,3.06073-2,4.21875-.97719,1.08064-2.3351,1.85413-4.3125,2.09375v.78125c2.11994-.20113 3.54312-.99771 4.5625-2.125 1.04717-1.15802 1.66459-2.6867 2-4.21875 .3103-1.41715.3917-2.82197.375-3.9375h-.25zm-14.875,1.6875c-1.35601,0-2.46875,1.11274-2.46875,2.46875 0,.40295.10816.75857.28125,1.09375-.017-.11624-.0312-.22279-.0312-.34375 0-1.35601 1.11274-2.46875 2.46875-2.46875 .91046,0 1.70631.47865 2.125,1.21875-.22554-1.12141-1.18849-1.96875-2.375-1.96875zm-.59375,5.5c.12772,1.5764.44968,3.00738.9375,4.28125-.39871-1.2673-.64669-2.65956-.71875-4.1875-.0774-.0201-.14445-.0665-.21875-.0937zm7.28125,10.59375v10.59375c-1.3393.28875-2.34375,1.48101-2.34375,2.90625 0,.47536.11431.91436.3125,1.3125-.0356-.18396-.0625-.36806-.0625-.5625 0-1.42524 1.00445-2.6175 2.34375-2.90625v-11.28125c-.0869-.013-.16429-.0466-.25-.0625zm1.5,10.65625v.6875c.91596.19748 1.67398.79682 2.0625,1.625-.19553-1.10217-1.01045-1.98826-2.0625-2.3125z" fill="#60564f" fill-rule="evenodd"/>
  </g>
  <g transform="matrix(1 0 0 -.76867 36 864.28)">
   <path d="m186.28 67.111h244.67l60 183.02-362.17-0.5 57.5-182.52z" fill="url(#l)"/>
   <path d="m306.38 82.036c-66.947 0-121.22 25.984-121.22 58.062s54.272 60.094 121.22 60.094 121.22-28.015 121.22-60.094-54.272-58.062-121.22-58.062zm0 5.125c51.912 0 93.969 20.111 93.969 44.938s-42.057 44.969-93.969 44.969-94-20.143-94-44.969 42.088-44.938 94-44.938z" fill="url(#k)"/>
   <path d="m306.38 85.8c-62.608 0-113.36 24.3-113.36 54.299s50.754 54.328 113.36 54.328 113.36-24.329 113.36-54.328-50.754-54.299-113.36-54.299zm0 2.7928c48.547 0 87.878 20.808 87.878 44.025s-39.331 42.054-87.878 42.054-87.907-18.837-87.907-42.054 39.36-44.025 87.907-44.025z" fill="url(#j)"/>
   <path d="m491.29 248.78-4 82c0 7.202-5.798 13-13 13h-328c-7.202 0-13-5.798-13-13l-4-82h362z" fill="url(#i)"/>
   <g transform="translate(47.5,-100.25)">
    <path d="m402.04 361.43h6.2509c3.54 0 6.3898 2.8652 6.3898 6.4243l-0.78579 8.1002c0 3.5591-2.8498 6.4243-6.3898 6.4243h-4.6793c-3.5399 0-6.3898-2.8653-6.3898-6.4243l-0.78579-8.1002c0-3.5591 2.8498-6.4243 6.3898-6.4243z" fill="url(#h)"/>
    <path d="m402.03 361.19c-3.54 0-6.375 2.8472-6.375 6.4062l0.78125 8.125c0 0.57835 0.0775 1.1239 0.21875 1.6562l-0.75-7.7812c0-3.5591 2.835-6.4062 6.375-6.4062h6.25c2.9198 0 5.3561 1.9448 6.125 4.625l0.0312-0.21875c0-3.5591-2.8663-6.4062-6.4062-6.4062h-6.25z" fill="#b1d28f"/>
   </g>
   <path d="m462.09 268.06-0.71875 7.1562c0 3.5591-2.8351 6.4062-6.375 6.4062h-4.6875c-3.3187 0-6.0177-2.5026-6.3438-5.75l0.21875 2.3438c0 3.5591 2.8351 6.4062 6.375 6.4062h4.6875c3.5399 0 6.375-2.8472 6.375-6.4062l0.8125-8.125c0-0.71327-0.13221-1.3912-0.34375-2.0312zm-18.125 7.8125c-0.0217-0.21649-0.0312-0.43381-0.0312-0.65625l-0.53125-5.4062c-4e-3 0.0941 0 0.18613 0 0.28125l0.5625 5.7812z" fill="#574e48"/>
   <path d="m133 246.86 356 0.5" fill="#e6e5e3" filter="url(#n)" stroke="#e6e5e3" stroke-width="4"/>
   <path d="m155.09 317.69 1.7188 16h59.5v-16h-61.219z" fill="#60564f"/>
   <path d="m155.28 317.69 1.2812 15.812 14.156-13.594 20.219-2.2188h-35.656z" fill="#343839"/>
   <path d="m168.03 317.69-6.5312 6.1875 0.125 5.5 50.125-0.25 4.625-10.688 0.0625-0.75h-48.406z" fill="url(#g)"/>
   <path d="m205.5 317.36-3.6616 7.25c2.9168-0.53033 5.6616 0 5.6616 0l2.3384-7.1036-4.3384-0.14645z" fill="url(#f)"/>
   <path d="m194.79 317.72-3.6616 7.25c2.9168-0.53033 5.6616 0 5.6616 0l2.3384-7.1036-4.3384-0.14645z" fill="url(#e)"/>
   <path d="m183.71 317.61-3.2866 7c2.9168-0.53033 5.6616 0 5.6616 0l1.9634-6.8536-4.3384-0.14645z" fill="url(#d)"/>
   <path d="m173.43 317.62-3.5366 6.8125c2.9168-0.53033 5.6616 0 5.6616 0l2.2134-6.666-4.3384-0.14645z" fill="url(#c)"/>
   <path d="m450.61 309.36h3.0357c5.0454 0 10.975 4.0618 10.975 9.1071v3.0357c0 5.0454-7.798 9.1071-12.843 9.1071h0.70054c-5.0454 0-12.843-4.0618-12.843-9.1071v-3.0357c0-5.0454 5.9299-9.1071 10.975-9.1071z" fill="#4b433e"/>
   <path d="m443.94 311.53c-2.4747 1.668-4.3125 4.1472-4.3125 6.9375v3.0312c0 4.9333 7.4522 8.9188 12.5 9.0938 5.0478-0.17497 12.5-4.1605 12.5-9.0938v-3.0312c0-2.6604-1.6703-5.0254-3.9688-6.6875 0.73396 0.99689 1.1562 2.1572 1.1562 3.375v2.3438c0 3.8059-5.7263 6.8892-9.625 7.0312-3.8992-0.12677-9.6562-3.2152-9.6562-7.0312v-2.3438c0-1.3283 0.55043-2.5674 1.4062-3.625zm8.1875 19.062c-0.11468 4e-3 -0.23167 0.0312-0.34375 0.0312h0.6875c-0.11208 0-0.22907-0.0273-0.34375-0.0312z" fill="#393c3c"/>
   <path d="m446.64 309.91c-1.697 1.1438-2.9573 2.844-2.9573 4.7575v2.0787c0 3.383 5.1104 6.1162 8.572 6.2361 3.4616-0.11998 8.572-2.8531 8.572-6.2361v-2.0787c0-1.8244-1.1454-3.4462-2.7216-4.586 0.50332 0.68363 0.79291 1.4793 0.79291 2.3144v1.6072c0 2.6099-3.9269 4.7243-6.6004 4.8218-2.6739-0.0869-6.6219-2.2049-6.6219-4.8218v-1.6072c0-0.91089 0.37746-1.7606 0.96435-2.4859zm5.6147 13.072c-0.0786 3e-3 -0.15887 0.0214-0.23573 0.0214h0.47146c-0.0769 0-0.15709-0.0187-0.23573-0.0214z" fill="#393c3c"/>
   <path d="m167.41 317.72 49.144-0.17678v4.9498l-53.917-0.35356 4.773-4.4194z" fill="#343839" opacity=".60184"/>
   <path d="m161.75 325.49h50.375v3.75l-49.75-0.3125-0.625-3.4375z" fill="#f6f6f6" opacity=".60184"/>
   <path d="m185.03 264.85-3 5.2812 2.4062-0.0312v23.062c-1.8024-0.31375-3.2488-1.3741-4.3125-3.0625-0.99826-1.5846-1.625-3.7355-1.75-6.2812 1.0379-0.28719 1.8125-1.2149 1.8125-2.3438 0-1.356-1.0815-2.4688-2.4375-2.4688s-2.4688 1.1127-2.4688 2.4688c0 1.1424 0.78678 2.1006 1.8438 2.375 0.12859 2.7266 0.79249 5.0887 1.9375 6.9062 1.2574 1.996 3.1262 3.32 5.375 3.6562v11.281c-1.3393 0.28875-2.3438 1.481-2.3438 2.9062 0 1.6409 1.3278 2.9688 2.9688 2.9688s2.9688-1.3278 2.9688-2.9688c0-1.4252-1.0044-2.6175-2.3438-2.9062v-17.562c2.4596-0.2053 4.2644-1.1961 5.5-2.5625 1.2464-1.3783 1.915-3.1085 2.2812-4.7812 0.33761-1.5421 0.42311-3.0373 0.40625-4.2188h1.4062v-4.0625h-4.0938v4.0625h1.4375c0.0167 1.1155-0.0647 2.5204-0.375 3.9375-0.33541 1.532-0.95283 3.0607-2 4.2188-1.0194 1.1273-2.4426 1.9239-4.5625 2.125v-16.75l2.4062-0.0312-3.0625-5.2188z" fill="#a59a92" fill-rule="evenodd"/>
   <path d="m179.66 313.47" fill="none" stroke="#eb7331" stroke-width=".15238"/>
   <path d="m183.97 270.68" fill="none" stroke="#eb7331" stroke-width=".15238"/>
   <path d="m179.66 313.47" fill="none" stroke="#eb7331" stroke-width=".15238"/>
   <path d="m183.97 270.68" fill="none" stroke="#eb7331" stroke-width=".15238"/>
   <path d="m185.07909,265.28921-3,5.28125h.6875l2.5625-4.53125 2.625,4.46875h.1875l-3.0625-5.21875zm-.59375,6v22.3125c-1.80238-.31375-3.24884-1.37406-4.3125-3.0625-.31993-.50786-.60442-1.10021-.84375-1.71875 .28634.9213.64673,1.75916 1.09375,2.46875 1.06366,1.68844 2.51012,2.74875 4.3125,3.0625v-23.0625h-.25zm6.75,1.65625v4.0625h.25v-3.3125h3.84375v-.75h-4.09375zm1.4375,4.8125c-.0246.96391-.13119,2.07403-.375,3.1875-.33541,1.53205-.95283,3.06073-2,4.21875-.97719,1.08064-2.3351,1.85413-4.3125,2.09375v.78125c2.11994-.20113 3.54312-.99771 4.5625-2.125 1.04717-1.15802 1.66459-2.6867 2-4.21875 .3103-1.41715.3917-2.82197.375-3.9375h-.25zm-14.875,1.6875c-1.35601,0-2.46875,1.11274-2.46875,2.46875 0,.40295.10816.75857.28125,1.09375-.017-.11624-.0312-.22279-.0312-.34375 0-1.35601 1.11274-2.46875 2.46875-2.46875 .91046,0 1.70631.47865 2.125,1.21875-.22554-1.12141-1.18849-1.96875-2.375-1.96875zm-.59375,5.5c.12772,1.5764.44968,3.00738.9375,4.28125-.39871-1.2673-.64669-2.65956-.71875-4.1875-.0774-.0201-.14445-.0665-.21875-.0937zm7.28125,10.59375v10.59375c-1.3393.28875-2.34375,1.48101-2.34375,2.90625 0,.47536.11431.91436.3125,1.3125-.0356-.18396-.0625-.36806-.0625-.5625 0-1.42524 1.00445-2.6175 2.34375-2.90625v-11.28125c-.0869-.013-.16429-.0466-.25-.0625zm1.5,10.65625v.6875c.91596.19748 1.67398.79682 2.0625,1.625-.19553-1.10217-1.01045-1.98826-2.0625-2.3125z" fill="#60564f" fill-rule="evenodd"/>
  </g>
  <path d="m96 598.36h510v224h-510z" fill="url(#q)"/>
 </g>
</svg>
