<?xml version="1.0" encoding="UTF-8"?>
<svg viewBox="0 0 540.43152 432.11652" xmlns="http://www.w3.org/2000/svg">
 <defs>
  <linearGradient id="b" x1="236.26" x2="238.03" y1="348.05" y2="573.06" gradientUnits="userSpaceOnUse">
   <stop stop-color="#ace" offset="0"/>
   <stop stop-color="#369" offset="1"/>
  </linearGradient>
  <linearGradient id="a" x2="0" y1="407.69" y2="634.97" gradientUnits="userSpaceOnUse">
   <stop stop-color="#b3ddfd" offset="0"/>
   <stop stop-color="#69c" offset="1"/>
  </linearGradient>
 </defs>
 <g transform="translate(-28.164 -339.74)">
  <g transform="matrix(1.4738 0 0 1.4738 -52.053 -166.93)">
   <path d="m98.424 343.78c-11.08 0-20 8.92-20 20v187.28c0 11.08 8.92 20 20 20h279.22c11.08 0 20-8.92 20-20v-138.78c0-11.08-8.92-20-20-20h-117.12c-7.5478-1.1844-9.7958-6.8483-10.375-11.312v-17.188c0-11.08-8.92-20-20-20h-131.72z" fill="#69c"/>
   <path d="m67.313 409.69h340.92a12.885 12.199 0 0 1 12.885 12.199v202.89a12.885 12.199 0 0 1 -12.885 12.199h-340.92a12.885 12.199 0 0 1 -12.885 -12.199v-202.89a12.885 12.199 0 0 1 12.885 -12.199" fill="#369"/>
   <path d="m98.424 345.78c-11.08 0-20 8.92-20 20v187.28c0 11.08 8.92 20 20 20h279.22c11.08 0 20-8.92 20-20v-138.78c0-11.08-8.92-20-20-20h-117.12c-7.5478-1.1844-9.7958-6.8483-10.375-11.312v-17.188c0-11.08-8.92-20-20-20h-131.72z" fill="url(#b)"/>
   <path d="m67.313 407.69h340.92a12.885 12.199 0 0 1 12.885 12.199v202.89a12.885 12.199 0 0 1 -12.885 12.199h-340.92a12.885 12.199 0 0 1 -12.885 -12.199v-202.89a12.885 12.199 0 0 1 12.885 -12.199" fill="url(#a)"/>
  </g>
 </g>
</svg>
