<?xml version="1.0" encoding="UTF-8"?>
<svg viewBox="0 0 228.94832 344.50073" xmlns="http://www.w3.org/2000/svg">
 <g transform="translate(-48.085 -707.86)">
  <path d="m140.88 1042.4c0-23.552-9.421-32.973-18.842-51.815-4.7105-4.7105-11.111-27.246-63.952-54.742 17.711-28.293 39.137-2.243 74.238-2.2715 2.7114-38.522 8.6766-91.868 8.6766-136.37 0-55.331 28.267-55.331 29.552 0 1.0226 44.012-1.2856 61.586-1.2856 78.853 0-21.116 46.032-8.0101 63.145 6.9147 14.996 13.079 35.753 26.954 34.574 47.729-1.9817 34.92-29.362 54.605-31.746 75.498-0.7848 11.126-0.15 19.369-0.15 36.209"/>
 </g>
 <g fill="none" stroke="#000" stroke-width="6.9">
  <path transform="matrix(1.2502 0 0 1.3699 -113.26 -414.87)" d="m208.75 356.52c0 16.571-14.72 30.004-32.877 30.004s-32.877-13.433-32.877-30.004 14.72-30.004 32.877-30.004 32.877 13.433 32.877 30.004z" opacity=".7"/>
  <path transform="matrix(1.3408 0 0 1.2945 -123.62 -383.1)" d="m189.6 352.05c0 10.225-8.0028 18.513-17.875 18.513s-17.875-8.2886-17.875-18.513 8.0028-18.513 17.875-18.513 17.875 8.2886 17.875 18.513z" opacity=".7"/>
  <path transform="matrix(1.2366 0 0 1.2441 -104.07 -362.56)" d="m218.16 350.4c0 26.227-21.39 47.488-47.776 47.488s-47.776-21.261-47.776-47.488 21.39-47.488 47.776-47.488 47.776 21.261 47.776 47.488z" opacity=".7"/>
 </g>
</svg>
