<?xml version="1.0" encoding="UTF-8"?>
<svg viewBox="0 0 437.5 437.5" xmlns="http://www.w3.org/2000/svg">
 <defs>
  <linearGradient id="b" x1=".58416" x2=".84488" y1=".19532" y2=".71875">
   <stop stop-opacity=".3333" offset="0"/>
   <stop stop-opacity="0" offset="1"/>
  </linearGradient>
  <linearGradient id="a">
   <stop stop-color="#faff00" offset="0"/>
   <stop stop-color="#02ff00" offset="1"/>
  </linearGradient>
 </defs>
 <path d="m213.14 297.58 222.26-0.1132-0.0242-19.695-222.26 0.1133 0.0242 19.695z" fill-rule="evenodd"/>
 <path d="m310.25 421.29-0.1132-340.41-19.695 0.03701 0.1133 340.41 19.694-0.0368z" fill-rule="evenodd"/>
 <path d="m228.61 297.58 143.49-0.1132-0.0156-19.695-143.49 0.1133 0.0156 19.695z" fill-rule="evenodd"/>
 <path d="m310.25 359.42-0.1132-143.49-19.695 0.0156 0.1133 143.49 19.694-0.0155z" fill-rule="evenodd"/>
 <path d="m16.573 223.86c22.216 35.241 98.067 164.51 125.42 195.18 28.002-35.816 94.661-153.81 119.96-193.93-26.585 0.1026-44.574-0.4454-65.434 0.1026 3.3004-105.62 186.92-152.41 202.73 57.592 8.6672 0.5035 19.181 1.8936 26.174-0.5588 0.7119-12.566-0.5128-36.908-0.4651-49.231 3.0462-307-339.48-272.93-333.77-9.2091-29.561 0.2694-50.988 0.1026-74.617 0.0513z" fill="url(#a)" fill-rule="evenodd" stroke="#006000" stroke-width="10.788"/>
 <path d="m144.17 387.86c13.087-19.879 75.586-123.99 85.065-142.32-20.694-1.3892-47.746 4.4372-47.985-14.91 0-14.458 10.045-52.038 17.906-68.362 19.082-21.81 51.56-40.163 80.897-49.937-39.361-39.417-131.54 8.4836-133.07 52.243 0.1473 25.658-2.9577 195.48-2.8135 223.28z" fill="url(#b)" fill-rule="evenodd"/>
</svg>
