<?xml version='1.0' encoding='utf-8'?>
<svg xmlns="http://www.w3.org/2000/svg" width="13in" height="18in" version="1.1" style="shape-rendering:geometricPrecision; text-rendering:geometricPrecision; image-rendering:optimizeQuality; fill-rule:evenodd; clip-rule:evenodd" viewBox="0 0 13000 18000"> <defs> <style type="text/css">  .fil2 {fill:#EEA326} .fil1 {fill:#FCD17C} .fil0 {fill:#FFBD3A}  </style> </defs> <g id="Layer_x0020_1"> <metadata id="CorelCorpID_0Corel-Layer"/> <path class="fil0" d="M18064 46538l731 0 1855 2c199,-21 559,-55 708,16 182,-60 1616,-41 1878,-17l731 -1 1855 1c217,-19 487,-42 691,32l127 48c-145,232 -74,626 -74,904 0,783 -103,955 253,971 228,11 165,-3 233,61 -102,85 -227,58 -381,45l379 25 -4 449 -28 105c-176,9 -272,-24 -440,61l-23 570 -97 34 -531 13 -199 -1c-497,-822 -1488,-771 -1742,-591 -11,692 28,589 -123,587l-317 17c-55,1237 -3,3581 -3,4942l0 3684c1,344 34,810 -346,960 -165,163 -679,133 -908,104 -426,-55 -600,7 -967,7 -233,11 -425,22 -648,-44l-185 -106c-189,-78 -243,-260 -254,-461l-27 -90c201,-49 239,30 395,-92 86,-189 57,-887 -24,-1090 -205,-514 -379,-239 -369,-851l3 -470 26 -105c284,-6 393,64 404,-253 50,-1423 -392,-1147 -436,-1468l8 -286 -7 -470 29 -108c327,-11 404,46 406,-323 1,-183 15,-541 -19,-704 -31,-149 -139,-361 -249,-468 -224,-218 -178,-183 -163,-524l0 -458 23 -110c530,-23 404,-117 405,-632 5,-1584 -1721,-1269 -1768,-1230 -113,148 -67,374 -67,557 -46,122 60,56 -115,68l-523 0 -180 10c-170,-188 -195,-334 -462,-493 -220,-131 -487,-180 -742,-181 -105,-40 -64,63 -80,-113l-3 -454 1240 -14 -1240 5 0 -113c267,0 1075,39 1276,-29 162,-212 89,-1003 -39,-1252 -222,-432 -481,-418 -832,-604 235,-131 684,-95 957,-73zm1725 3731c48,417 15,6467 15,7317 0,408 -39,1060 18,1440 164,1091 1173,950 2020,950 830,0 1875,169 2075,-893 104,-554 -40,-7580 36,-8802 1827,-155 3502,583 3499,-1409 -1,-529 28,-1139 -4,-1658 -81,-1271 -1256,-1087 -2194,-1087l-6623 0c-902,0 -2191,-219 -2323,1005 -50,468 -11,1131 -12,1620 -3,1477 561,1518 1813,1518 560,0 1119,0 1679,0z"/> <path class="fil1" d="M21284 58724c-34,-180 -4,-795 -4,-1019 0,-239 -105,-763 179,-853 144,-46 827,-22 1026,-22 1005,0 856,-74 856,1272 0,987 122,855 -1218,855 -264,0 -777,94 -839,-232zm144 -4437c160,-94 792,-44 1016,-44 236,0 779,-87 874,185 45,128 23,832 23,1020 0,1049 119,923 -1177,923 -1024,0 -883,100 -883,-1200 0,-248 -86,-745 148,-882zm55 -2608c148,-53 834,-23 1041,-23 948,0 816,-91 816,1255 0,259 85,759 -193,852 -139,46 -864,20 -1065,20 -295,0 -745,98 -797,-242 -36,-237 -6,-759 -6,-1026 0,-291 -98,-728 204,-836zm-37 -2568c190,-84 796,-39 1037,-39 980,0 856,-138 856,1224 0,1026 165,899 -1218,899 -976,0 -843,132 -843,-1216 0,-259 -107,-747 167,-868zm-3505 -508l-1240 14 3 454c353,0 782,-22 1125,-1 439,27 338,439 338,778l523 0c34,-851 -126,-777 1103,-777 1154,0 954,-145 961,1502 2,546 30,617 -543,623l0 458c664,9 542,148 542,1059 0,918 128,1084 -547,1067l7 470c283,-23 504,-38 537,287 23,223 3,557 3,791 0,609 198,1083 -542,1035l-3 470c743,-29 546,398 546,1030 0,234 20,571 -2,792 -31,318 -258,300 -519,300 12,202 65,383 254,461l185 106c223,66 415,55 648,44 128,-238 631,-152 880,-152 254,0 780,-42 995,41 380,-150 346,-615 346,-960l0 -3684c0,-1361 -51,-3705 3,-4942l317 -17c0,-963 70,-782 1028,-782 961,0 1036,-184 1036,787l531 -13c-49,-645 -79,-790 588,-771l4 -449 -379 -25c-344,-140 -220,-647 -220,-959 0,-313 -57,-794 61,-1071 -204,-74 -474,-52 -691,-32 175,231 106,622 106,905 0,182 23,875 -26,999 -102,258 -654,170 -890,170 -1290,0 -1149,158 -1149,-1050 0,-314 -76,-765 103,-1025l-731 1c211,314 103,1099 105,1499 5,770 -320,574 -1017,574 -184,0 -650,22 -802,-8 -279,-56 -244,-331 -242,-566 2,-336 -69,-1233 79,-1482 -149,-71 -509,-37 -708,-16 178,200 106,786 106,1063 0,1189 85,1010 -1202,1010 -987,0 -862,108 -862,-1168 0,-315 -58,-647 103,-906l-731 0c181,309 105,746 105,1104 0,309 121,837 -227,962z"/> <path class="fil2" d="M19788 50269c-560,0 -1119,0 -1679,0 -1252,0 -1815,-41 -1813,-1518 1,-489 -39,-1152 12,-1620 132,-1224 1421,-1005 2323,-1005l6623 0c938,0 2113,-184 2194,1087 33,519 4,1129 4,1658 3,1992 -1672,1254 -3499,1409 -76,1222 69,8248 -36,8802 -200,1062 -1245,893 -2075,893 -847,0 -1856,141 -2020,-950 -57,-380 -18,-1032 -18,-1440 0,-850 33,-6900 -15,-7317zm-274 265c0,1994 0,3988 0,5982 0,618 -82,2415 120,2892 423,997 1298,832 2208,832 849,0 1851,166 2261,-779 199,-459 107,-2296 107,-2905 0,-2007 0,-4014 0,-6022 575,0 1151,1 1726,0 528,-1 980,32 1390,-371 368,-363 419,-849 416,-1332 -6,-954 238,-2294 -693,-2802 -450,-245 -1086,-169 -1594,-169l-7064 0c-994,0 -2161,-134 -2353,1164 -64,430 -16,1257 -15,1728 1,518 -17,973 370,1378 391,410 837,403 1356,404 589,1 1177,0 1766,0z"/> <path class="fil0" d="M20617 48417c82,-321 57,-944 -114,-1235 -332,-563 -1144,-675 -1548,-573 -211,53 -148,316 -147,518 1,309 -50,1083 42,1330 245,84 1595,105 1768,-41z"/> <path class="fil0" d="M21433 51014c169,147 1691,65 1732,31 105,-90 72,-713 60,-870 -83,-1099 -1627,-1084 -1777,-941 -100,95 -88,1624 -15,1780z"/> <path class="fil0" d="M21448 56190c169,148 641,66 876,66 177,0 775,57 866,-77 24,-36 235,-976 -300,-1489 -172,-165 -383,-258 -614,-304 -158,-31 -764,-86 -853,52 -81,125 -58,1642 25,1752z"/> <path class="fil0" d="M25780 48439c102,-305 57,-969 -103,-1253 -312,-553 -1118,-676 -1547,-578 -218,49 -152,313 -151,520 1,296 -44,1106 42,1335 225,66 1589,80 1760,-24z"/> <path class="fil0" d="M21427 53637c207,56 1661,89 1756,-40 72,-97 55,-734 36,-885 -62,-503 -498,-826 -968,-919 -157,-31 -728,-69 -814,44 -84,110 -61,1614 -9,1800z"/> <path class="fil0" d="M21438 58773c170,148 1678,69 1721,33 45,-37 441,-1531 -859,-1828 -147,-34 -760,-82 -858,16 -93,93 -81,1645 -4,1779z"/> <path class="fil0" d="M21424 46635c-50,203 -58,1603 0,1779 173,164 1008,81 1302,82 222,1 453,68 496,-177 18,-101 11,-597 3,-718 -70,-1071 -1577,-1092 -1801,-966z"/> <path class="fil2" d="M21438 58773c-77,-134 -89,-1686 4,-1779 98,-98 711,-50 858,-16 1300,297 904,1791 859,1828 -44,36 -1551,115 -1721,-33zm-154 -48c62,326 575,232 839,232 1340,0 1218,132 1218,-855 0,-1346 148,-1272 -856,-1272 -199,0 -882,-23 -1026,22 -283,90 -179,614 -179,853 0,225 -30,839 4,1019z"/> <path class="fil2" d="M21427 53637c-52,-187 -75,-1690 9,-1800 87,-113 657,-75 814,-44 471,93 906,416 968,919 19,152 35,788 -36,885 -95,129 -1548,96 -1756,40zm56 -1958c-302,108 -204,545 -204,836 0,267 -30,789 6,1026 52,340 502,242 797,242 201,0 926,27 1065,-20 278,-93 193,-593 193,-852 0,-1346 132,-1256 -816,-1255 -207,0 -893,-29 -1041,23z"/> <path class="fil2" d="M21433 51014c-73,-155 -85,-1685 15,-1780 150,-143 1694,-158 1777,941 12,157 45,780 -60,870 -40,34 -1562,115 -1732,-31zm14 -1903c-274,122 -167,609 -167,868 0,1348 -133,1216 843,1216 1383,0 1218,127 1218,-899 0,-1362 123,-1224 -856,-1224 -242,0 -848,-46 -1037,39z"/> <path class="fil2" d="M21448 56190c-83,-110 -105,-1627 -25,-1752 89,-138 695,-83 853,-52 231,46 442,139 614,304 535,513 325,1454 300,1489 -91,134 -689,77 -866,77 -235,0 -707,82 -876,-66zm-19 -1903c-234,137 -148,634 -148,882 0,1300 -141,1200 883,1200 1297,0 1177,126 1177,-923 0,-187 22,-891 -23,-1020 -94,-272 -638,-185 -874,-185 -224,0 -856,-49 -1016,44z"/> <path class="fil2" d="M21424 46635c224,-126 1730,-104 1801,966 8,121 15,617 -3,718 -44,245 -275,179 -496,177 -294,-2 -1128,82 -1302,-82 -57,-176 -50,-1576 0,-1779zm-66 -78c-148,249 -76,1147 -79,1482 -1,235 -37,509 242,566 152,31 618,8 802,8 698,0 1023,196 1017,-574 -3,-400 105,-1185 -105,-1499 -262,-24 -1695,-43 -1878,17z"/> <path class="fil2" d="M25780 48439c-170,103 -1535,90 -1760,24 -86,-229 -40,-1039 -42,-1335 -1,-208 -67,-471 151,-520 429,-97 1235,25 1547,578 160,284 205,948 103,1253zm42 -1900l-1855 -1c-179,260 -103,711 -103,1025 0,1208 -141,1050 1149,1050 235,0 788,88 890,-170 49,-124 26,-817 26,-999 0,-284 69,-674 -106,-905z"/> <path class="fil2" d="M20617 48417c-173,146 -1523,124 -1768,41 -91,-247 -40,-1021 -42,-1330 -1,-203 -63,-465 147,-518 405,-102 1216,11 1548,573 171,290 196,914 114,1235zm33 -1877l-1855 -2c-161,259 -103,591 -103,906 0,1276 -125,1168 862,1168 1287,0 1202,179 1202,-1010 0,-276 72,-862 -106,-1063z"/> <path class="fil2" d="M18692 49850c175,-12 69,54 115,-68 0,-183 -46,-409 67,-557 46,-39 1773,-354 1768,1230 -2,515 125,609 -405,632l-23 110c573,-6 545,-77 543,-623 -7,-1646 193,-1502 -961,-1502 -1229,0 -1070,-73 -1103,777z"/> <path class="fil2" d="M17942 48604c348,-124 227,-653 227,-962 0,-358 77,-795 -105,-1104 -273,-22 -722,-57 -957,73 352,186 610,172 832,604 128,248 201,1040 39,1252 -201,68 -1009,29 -1276,29l0 113 1240 -5z"/> <path class="fil2" d="M23864 49855c151,1 112,105 123,-587 255,-180 1245,-230 1742,591l199 1c0,-971 -75,-787 -1036,-787 -958,0 -1028,-181 -1028,782z"/> <path class="fil2" d="M20214 56363c741,47 542,-426 542,-1035 0,-235 20,-568 -3,-791 -33,-325 -254,-310 -537,-287l-8 286c44,321 486,46 436,1468 -11,318 -120,247 -404,253l-26 105z"/> <path class="fil2" d="M20209 53780c675,18 547,-149 547,-1067 0,-910 122,-1049 -542,-1059 -15,341 -62,306 163,524 109,106 218,319 249,468 34,163 20,521 19,704 -2,369 -79,312 -406,323l-29 108z"/> <path class="fil2" d="M20235 58956c261,0 488,18 519,-300 22,-221 2,-559 2,-792 0,-632 198,-1059 -546,-1030 -10,612 164,337 369,851 81,203 111,902 24,1090 -156,121 -194,43 -395,92l27 90z"/> <path class="fil2" d="M18168 49850c0,-339 101,-750 -338,-778 -343,-21 -772,1 -1125,1 16,176 -25,74 80,113 255,1 522,50 742,181 267,159 292,305 462,493l180 -10z"/> <path class="fil2" d="M26671 48601c154,13 279,40 381,-45 -68,-65 -5,-51 -233,-61 -356,-17 -253,-189 -253,-971 0,-278 -72,-672 74,-904l-127 -48c-118,277 -61,759 -61,1071 0,312 -124,819 220,959z"/> <path class="fil2" d="M21323 59568c366,0 541,-61 967,-7 229,29 743,59 908,-104 -214,-83 -741,-41 -995,-41 -249,0 -752,-86 -880,152z"/> <path class="fil2" d="M26459 49846l97 -34 23 -570c168,-85 264,-52 440,-61l28 -105c-666,-19 -636,126 -588,771z"/> <polygon class="fil2" points="20675,59523 20490,59417 "/> </g> </svg>